<?xml version="1.0" encoding="UTF-8" standalone="no"?>
<!DOCTYPE svg PUBLIC "-//W3C//DTD SVG 1.1//EN" "http://www.w3.org/Graphics/SVG/1.1/DTD/svg11.dtd">
<svg xmlns="http://www.w3.org/2000/svg" version="1.1" viewBox="0.00 0.00 630.00 396.00">
<clipPath id="clipping-path-0">
<path d="
  M 0.00 0.00
  L 630.00 0.00
  L 630.00 396.00
  L 0.00 396.00
  L 0.00 0.00
  Z"/>
</clipPath>
<g stroke-width="2.00" fill="none" stroke-linecap="butt" clip-path="url(#clipping-path-0)">
<path stroke="#eedeb1" vector-effect="non-scaling-stroke" d="
  M 196.21 82.50
  C 195.06 84.30 194.67 87.63 191.91 87.40
  Q 191.46 87.36 191.24 86.96
  L 189.15 83.08"
/>
<path stroke="#eedeb1" vector-effect="non-scaling-stroke" d="
  M 560.50 209.04
  Q 562.85 211.77 562.63 215.32
  Q 562.56 216.36 563.00 215.41
  Q 564.82 211.51 561.25 208.96"
/>
</g>
<path fill="#ffffff" d="
  M 196.21 82.50
  C 195.06 84.30 194.67 87.63 191.91 87.40
  Q 191.46 87.36 191.24 86.96
  L 189.15 83.08
  L 184.58 77.09
  Q 184.41 76.86 184.68 76.75
  Q 184.77 76.71 184.93 76.71
  Q 185.00 76.71 185.05 76.76
  L 190.85 82.19
  A 0.42 0.42 0.0 0 0 191.56 81.90
  L 192.21 67.72
  Q 192.23 67.22 192.73 67.33
  C 193.17 67.44 193.56 80.40 193.64 81.76
  Q 193.69 82.77 194.44 82.09
  L 199.90 77.09
  Q 200.81 76.27 200.17 77.31
  Q 198.46 80.12 196.21 82.50
  Z"
/>
<path fill="#ddbc63" d="
  M 196.21 82.50
  Q 196.13 82.99 196.50 83.41
  Q 196.82 83.77 197.30 83.77
  L 426.00 83.65
  Q 426.55 83.65 426.99 83.99
  Q 472.20 118.81 517.70 153.28
  C 522.01 156.54 520.09 160.30 516.73 163.36
  Q 503.83 175.08 490.77 186.55
  Q 490.38 186.90 489.85 186.84
  Q 483.90 186.17 477.98 186.88
  A 0.43 0.43 0.0 0 1 477.64 186.14
  L 502.07 163.99
  A 0.72 0.72 0.0 0 0 501.59 162.74
  L 455.47 162.76
  A 1.60 1.60 0.0 0 0 454.11 163.52
  L 440.17 186.13
  Q 439.93 186.53 439.46 186.57
  Q 429.59 187.50 419.78 186.36
  Q 418.71 186.24 419.45 185.45
  L 439.97 163.66
  A 0.38 0.37 22.0 0 0 439.70 163.03
  L 389.59 162.67
  Q 389.04 162.67 388.81 163.18
  L 378.72 186.14
  Q 378.56 186.51 378.15 186.53
  L 369.80 186.83
  A 0.95 0.95 0.0 0 1 368.90 185.51
  L 378.13 164.09
  A 0.94 0.93 -78.2 0 0 377.28 162.78
  L 315.44 162.81
  A 1.30 1.30 0.0 0 0 314.16 164.32
  L 317.76 185.80
  A 0.82 0.81 -4.7 0 1 316.95 186.75
  L 299.36 186.75
  Q 298.79 186.75 298.89 186.19
  L 302.77 163.26
  A 0.52 0.51 4.7 0 0 302.26 162.67
  L 238.96 163.02
  A 0.58 0.58 0.0 0 0 238.43 163.83
  L 247.56 184.60
  A 1.58 1.57 75.4 0 1 246.27 186.80
  Q 242.34 187.18 238.49 186.64
  Q 238.03 186.58 237.85 186.15
  L 227.91 163.20
  Q 227.70 162.71 227.17 162.71
  L 176.74 162.84
  A 0.44 0.44 0.0 0 0 176.42 163.59
  L 197.73 185.68
  A 0.59 0.58 -21.7 0 1 197.30 186.67
  L 177.06 186.53
  Q 176.60 186.53 176.36 186.13
  L 162.40 163.22
  Q 162.11 162.75 161.57 162.75
  L 114.53 162.75
  A 0.49 0.48 65.8 0 0 114.21 163.60
  L 138.90 185.66
  A 0.58 0.58 0.0 0 1 138.53 186.67
  L 126.17 186.97
  Q 125.75 186.98 125.43 186.68
  Q 113.24 175.36 100.88 164.27
  C 95.69 159.62 95.03 156.57 100.81 152.21
  Q 143.39 120.02 185.61 87.17
  A 0.61 0.61 0.0 0 0 185.26 86.08
  L 175.44 85.73
  Q 174.64 85.70 175.10 85.05
  Q 175.47 84.54 176.32 84.53
  Q 182.77 84.41 189.15 83.08
  L 191.24 86.96
  Q 191.46 87.36 191.91 87.40
  C 194.67 87.63 195.06 84.30 196.21 82.50
  Z
  M 285.03 94.17
  A 0.47 0.47 0.0 0 0 284.84 93.27
  L 213.69 92.92
  A 0.47 0.47 0.0 0 0 213.48 93.81
  L 248.52 111.01
  A 0.47 0.47 0.0 0 0 248.92 111.01
  L 285.03 94.17
  Z
  M 334.35 95.18
  C 342.39 99.22 355.07 106.07 367.87 110.67
  Q 368.43 110.87 368.97 110.61
  L 403.38 93.56
  A 0.29 0.29 0.0 0 0 403.26 93.01
  Q 368.24 92.98 333.06 93.02
  Q 331.88 93.02 330.67 93.64
  Q 329.97 93.99 330.72 94.19
  C 332.06 94.54 333.12 94.56 334.35 95.18
  Z
  M 307.93 152.11
  A 0.78 0.78 0.0 0 0 308.83 152.12
  L 357.55 117.96
  A 0.78 0.78 0.0 0 0 357.43 116.61
  L 308.40 93.84
  A 0.78 0.78 0.0 0 0 307.74 93.85
  L 259.45 116.56
  A 0.78 0.78 0.0 0 0 259.34 117.90
  L 307.93 152.11
  Z
  M 419.19 96.43
  C 406.21 102.68 393.10 108.94 380.37 115.68
  Q 379.99 115.88 379.81 116.05
  A 0.68 0.67 -53.4 0 0 379.97 117.16
  Q 411.25 132.36 442.15 148.13
  Q 444.10 149.13 445.93 150.22
  A 0.48 0.48 0.0 0 0 446.65 149.78
  Q 445.79 130.43 444.56 111.19
  C 444.50 110.11 444.27 109.29 443.35 108.59
  Q 434.18 101.67 425.15 94.53
  Q 424.74 94.21 424.25 94.37
  Q 421.59 95.27 419.19 96.43
  Z
  M 193.00 102.74
  A 0.36 0.36 0.0 0 1 192.29 102.76
  L 191.48 95.34
  A 0.48 0.48 0.0 0 0 190.71 95.01
  Q 182.72 101.02 174.95 107.24
  C 171.98 109.61 171.78 111.07 171.64 114.68
  Q 170.93 132.13 169.97 149.77
  A 0.32 0.32 0.0 0 0 170.43 150.07
  L 236.88 117.05
  Q 237.42 116.78 236.92 116.43
  Q 232.59 113.45 227.84 111.13
  Q 212.10 103.46 195.56 95.35
  A 1.55 1.55 0.0 0 0 193.33 96.66
  L 193.00 102.74
  Z
  M 161.98 124.51
  Q 162.13 121.50 161.93 118.07
  A 0.47 0.47 0.0 0 0 161.17 117.73
  Q 139.06 134.83 116.71 151.96
  Q 116.19 152.35 116.01 153.01
  A 0.62 0.61 -84.9 0 0 116.65 153.78
  C 130.82 152.60 145.44 153.27 159.71 153.20
  Q 160.19 153.20 160.23 152.72
  Q 161.28 138.59 161.98 124.51
  Z
  M 456.00 152.90
  A 0.34 0.34 0.0 0 0 456.34 153.23
  L 500.98 153.36
  A 0.34 0.34 0.0 0 0 501.19 152.75
  L 455.21 117.52
  A 0.34 0.34 0.0 0 0 454.67 117.80
  L 456.00 152.90
  Z
  M 375.50 153.48
  Q 376.89 153.50 377.51 153.37
  Q 378.64 153.14 378.19 152.07
  L 366.54 124.78
  Q 365.97 123.45 364.78 124.28
  L 325.56 151.82
  A 1.07 1.03 62.3 0 0 325.20 153.05
  C 325.34 153.42 325.97 153.67 326.41 153.65
  C 342.71 152.71 359.19 153.31 375.50 153.48
  Z
  M 289.75 153.38
  Q 291.10 153.39 292.45 153.52
  A 0.40 0.40 0.0 0 0 292.71 152.80
  L 251.19 123.97
  A 0.58 0.57 -60.9 0 0 250.33 124.22
  L 238.27 152.71
  Q 238.02 153.31 238.67 153.31
  Q 264.31 153.18 289.75 153.38
  Z
  M 380.47 127.71
  C 379.35 127.14 378.60 126.48 377.56 125.74
  Q 376.92 125.29 377.23 126.01
  L 388.83 152.66
  Q 389.09 153.24 389.73 153.25
  L 429.28 153.26
  A 0.35 0.35 0.0 0 0 429.50 152.63
  C 429.26 152.44 428.97 152.01 428.70 151.88
  Q 404.52 139.93 380.47 127.71
  Z
  M 186.63 153.21
  C 199.98 153.24 213.45 152.86 226.80 153.73
  A 0.77 0.76 13.0 0 0 227.55 153.27
  L 238.90 127.63
  A 0.48 0.48 0.0 0 0 238.57 126.97
  Q 238.16 126.89 237.66 127.14
  Q 212.11 139.85 186.48 152.57
  A 0.34 0.34 0.0 0 0 186.63 153.21
  Z"
/>
<path fill="#ffffff" d="
  M 560.50 209.04
  Q 562.85 211.77 562.63 215.32
  Q 562.56 216.36 563.00 215.41
  Q 564.82 211.51 561.25 208.96
  L 562.34 199.76
  A 0.33 0.33 0.0 0 1 562.99 199.80
  L 563.01 204.96
  Q 563.01 205.52 563.48 205.82
  L 564.19 206.29
  Q 564.69 206.61 564.69 207.19
  C 564.71 210.23 566.59 211.48 567.54 213.51
  C 572.23 223.44 563.73 230.55 554.88 232.06
  Q 553.97 232.21 554.68 232.80
  C 562.68 239.40 565.90 248.25 574.81 253.78
  A 0.51 0.50 -30.7 0 1 574.57 254.71
  C 568.78 255.07 561.61 254.56 558.77 248.46
  C 555.53 241.52 551.54 231.47 542.78 232.28
  Q 542.29 232.32 542.29 232.81
  Q 542.19 240.28 542.18 247.76
  Q 542.16 252.13 545.93 253.52
  A 0.63 0.63 0.0 0 1 545.71 254.75
  L 531.05 254.75
  A 0.64 0.64 0.0 0 1 530.87 253.49
  C 534.35 252.53 534.73 249.77 534.74 246.34
  Q 534.78 229.33 534.72 212.32
  Q 534.70 208.72 531.10 207.61
  Q 530.54 207.43 530.79 206.90
  C 531.55 205.26 556.12 207.17 559.22 207.71
  Q 559.73 207.80 560.00 208.24
  L 560.50 209.04
  Z
  M 542.22 209.17
  L 542.26 229.39
  A 0.90 0.90 0.0 0 0 543.16 230.28
  L 550.41 230.27
  A 10.63 10.39 -0.1 0 0 561.02 219.86
  L 561.02 218.62
  A 10.63 10.39 -0.1 0 0 550.37 208.25
  L 543.12 208.26
  A 0.90 0.90 0.0 0 0 542.22 209.17
  Z"
/>
<path fill="#ffffff" d="
  M 105.3107 255.2003
  A 24.85 24.05 96.7 0 1 84.3242 227.7141
  A 24.85 24.05 96.7 0 1 111.1093 205.8397
  A 24.85 24.05 96.7 0 1 132.0958 233.3259
  A 24.85 24.05 96.7 0 1 105.3107 255.2003
  Z
  M 112.12 252.45
  C 130.16 248.87 128.58 204.24 105.81 208.09
  Q 96.16 209.73 93.71 219.72
  C 90.58 232.50 91.99 256.45 112.12 252.45
  Z"
/>
<path fill="#ffffff" d="
  M 163.50 252.86
  Q 174.24 253.09 179.24 243.52
  A 0.50 0.50 0.0 0 1 180.18 243.85
  L 178.55 251.85
  Q 178.44 252.37 177.94 252.56
  C 165.90 257.21 148.65 256.62 141.10 245.06
  C 129.91 227.97 142.64 205.00 163.04 205.76
  C 167.90 205.94 173.63 208.57 178.43 207.72
  Q 179.09 207.60 179.07 208.27
  L 178.82 219.75
  A 0.56 0.55 31.3 0 1 177.78 220.00
  C 176.20 217.17 174.77 213.84 172.46 211.81
  C 166.86 206.92 159.05 206.63 153.09 211.05
  C 139.25 221.33 143.69 252.43 163.50 252.86
  Z"
/>
<path fill="#ffffff" d="
  M 338.02 252.52
  C 343.98 251.47 346.50 247.51 349.63 243.22
  A 0.44 0.44 0.0 0 1 350.41 243.58
  L 348.47 251.95
  Q 348.35 252.46 347.86 252.66
  C 331.06 259.36 309.05 254.31 307.30 233.06
  C 305.96 216.83 319.75 202.56 336.43 206.07
  Q 344.52 207.77 348.63 208.14
  Q 349.07 208.18 349.06 208.62
  L 348.83 220.23
  Q 348.80 221.74 348.02 220.45
  C 346.21 217.48 344.95 213.82 342.35 211.72
  Q 335.79 206.44 328.10 208.62
  C 306.67 214.69 312.45 257.04 338.02 252.52
  Z"
/>
<path fill="#ffffff" d="
  M 374.4473 255.1855
  A 24.82 24.10 96.6 0 1 353.3597 227.7600
  A 24.82 24.10 96.6 0 1 380.1527 205.8745
  A 24.82 24.10 96.6 0 1 401.2403 233.3000
  A 24.82 24.10 96.6 0 1 374.4473 255.1855
  Z
  M 376.57 207.79
  C 358.08 208.88 357.46 239.89 368.19 249.66
  C 373.40 254.40 382.09 254.27 387.32 249.29
  C 397.44 239.64 395.82 206.66 376.57 207.79
  Z"
/>
<path fill="#ffffff" d="
  M 500.4120 255.1432
  A 24.83 24.08 97.4 0 1 479.7306 227.4186
  A 24.83 24.08 97.4 0 1 506.8080 205.8968
  A 24.83 24.08 97.4 0 1 527.4894 233.6214
  A 24.83 24.08 97.4 0 1 500.4120 255.1432
  Z
  M 489.52 218.32
  C 486.51 226.39 486.91 235.71 490.28 243.72
  C 496.28 258.02 514.73 255.10 518.35 241.09
  C 520.84 231.46 520.52 214.78 510.18 209.51
  C 501.76 205.22 492.79 209.55 489.52 218.32
  Z"
/>
<path fill="#ffffff" d="
  M 262.50 236.51
  Q 254.71 237.51 246.89 236.58
  Q 246.26 236.51 246.05 237.11
  L 241.75 249.69
  A 2.29 2.28 19.7 0 0 243.12 252.58
  L 245.81 253.58
  Q 246.47 253.83 245.97 254.32
  C 245.15 255.13 235.23 254.75 233.49 254.72
  A 0.61 0.60 39.9 0 1 233.38 253.52
  C 237.13 252.78 238.75 250.28 240.08 246.61
  Q 247.25 226.74 254.77 206.92
  A 1.52 1.50 -74.3 0 1 256.44 205.97
  C 257.73 206.19 258.63 207.33 259.17 208.60
  Q 267.58 228.16 275.96 247.74
  Q 277.96 252.42 282.56 253.56
  A 0.49 0.49 0.0 0 1 282.45 254.53
  L 265.51 255.01
  A 0.66 0.65 -60.2 0 1 265.18 253.78
  L 268.45 251.96
  Q 268.90 251.71 268.76 251.21
  Q 266.73 243.75 263.21 236.88
  Q 262.99 236.45 262.50 236.51
  Z
  M 247.23 234.09
  A 0.31 0.31 0.0 0 0 247.53 234.51
  L 261.68 234.18
  A 0.31 0.31 0.0 0 0 261.96 233.76
  L 254.47 215.72
  A 0.31 0.31 0.0 0 0 253.90 215.73
  L 247.23 234.09
  Z"
/>
<path fill="#ffffff" d="
  M 65.22 232.83
  C 72.63 239.56 76.92 249.16 85.24 253.78
  A 0.49 0.49 0.0 0 1 85.03 254.69
  C 79.25 255.03 72.79 254.92 69.55 249.19
  C 65.76 242.48 62.63 232.08 53.20 232.25
  Q 52.63 232.26 52.58 232.83
  Q 51.89 241.16 52.73 249.30
  C 53.01 251.92 56.31 253.51 56.24 254.29
  Q 56.19 254.75 55.73 254.75
  L 41.05 254.75
  A 0.57 0.57 0.0 0 1 40.88 253.63
  C 44.15 252.66 44.99 250.26 44.99 246.91
  Q 45.02 229.96 44.97 213.01
  Q 44.96 208.71 40.86 207.59
  A 0.52 0.51 -73.6 0 1 40.51 206.94
  C 40.91 205.71 63.02 206.68 65.47 206.82
  C 83.92 207.88 82.94 229.64 65.55 231.78
  A 0.61 0.60 62.6 0 0 65.22 232.83
  Z
  M 52.19 209.71
  L 52.25 228.93
  A 1.38 1.38 0.0 0 0 53.64 230.31
  L 60.65 230.28
  A 10.86 10.65 89.8 0 0 71.26 219.39
  L 71.26 219.13
  A 10.86 10.65 89.8 0 0 60.57 208.30
  L 53.56 208.33
  A 1.38 1.38 0.0 0 0 52.19 209.71
  Z"
/>
<path fill="#ffffff" d="
  M 194.12 229.35
  Q 193.66 245.79 194.21 250.00
  C 194.52 252.42 198.27 253.16 197.97 254.14
  Q 197.80 254.66 197.26 254.66
  L 182.69 254.78
  A 0.54 0.54 0.0 0 1 182.53 253.73
  C 185.63 252.76 186.50 250.81 186.50 247.56
  Q 186.51 230.41 186.49 213.27
  C 186.49 210.12 185.65 208.85 182.92 207.59
  Q 182.29 207.30 182.48 206.73
  Q 182.60 206.34 183.01 206.34
  L 197.55 206.42
  Q 197.86 206.42 198.04 206.67
  L 198.22 206.92
  Q 198.70 207.56 197.91 207.69
  Q 194.83 208.18 194.35 210.80
  Q 193.13 217.48 194.19 226.00
  Q 194.26 226.50 194.76 226.50
  L 218.51 226.50
  A 0.64 0.64 0.0 0 0 219.15 225.89
  Q 219.54 219.08 218.99 212.17
  C 218.78 209.55 217.28 208.03 214.95 207.28
  A 0.36 0.36 0.0 0 1 215.05 206.57
  L 230.08 206.19
  Q 230.81 206.17 230.71 206.90
  C 230.55 208.06 227.04 208.77 226.87 211.43
  Q 226.13 223.28 226.61 247.52
  C 226.67 250.82 227.71 252.88 230.88 253.73
  A 0.51 0.51 0.0 0 1 230.75 254.74
  L 215.50 254.72
  A 0.63 0.63 0.0 0 1 215.30 253.50
  C 217.91 252.61 218.98 250.83 219.09 247.99
  Q 219.43 239.10 219.16 229.88
  A 1.17 1.16 -0.8 0 0 217.99 228.75
  L 194.74 228.75
  Q 194.14 228.75 194.12 229.35
  Z"
/>
<path fill="#ffffff" d="
  M 416.58 252.42
  C 424.78 252.79 433.72 254.45 437.58 244.93
  A 0.49 0.49 0.0 0 1 438.52 245.10
  L 438.83 254.07
  Q 438.85 254.75 438.17 254.75
  L 404.78 254.75
  A 0.58 0.58 0.0 0 1 404.36 253.77
  C 406.14 251.89 408.46 251.96 408.47 248.68
  Q 408.52 231.36 408.50 214.04
  C 408.49 210.58 407.76 208.47 404.32 207.59
  Q 403.82 207.46 404.01 206.98
  C 404.23 206.39 415.09 206.33 418.74 206.20
  Q 419.64 206.16 420.08 206.82
  Q 420.42 207.31 419.85 207.50
  Q 415.80 208.85 415.78 213.06
  Q 415.72 232.21 415.76 251.56
  Q 415.76 252.38 416.58 252.42
  Z"
/>
<path fill="#ffffff" d="
  M 454.19 252.41
  C 458.03 252.60 461.87 252.47 465.70 252.53
  C 470.80 252.62 472.99 248.97 475.61 244.61
  Q 476.15 243.71 476.19 244.76
  L 476.56 254.08
  Q 476.58 254.75 475.92 254.75
  L 442.25 254.75
  Q 441.74 254.75 441.75 254.25
  Q 441.75 254.11 441.75 253.98
  Q 441.73 253.47 442.23 253.35
  Q 445.96 252.41 446.11 248.69
  Q 446.87 230.75 446.27 212.81
  Q 446.18 209.99 441.88 207.04
  Q 441.09 206.50 442.04 206.50
  L 457.25 206.50
  A 0.52 0.52 0.0 0 1 457.44 207.50
  C 454.50 208.62 453.76 210.45 453.76 213.64
  Q 453.74 232.81 453.76 251.96
  A 0.45 0.45 0.0 0 0 454.19 252.41
  Z"
/>
<ellipse fill="#ddbc63" cx="0.00" cy="0.00" transform="translate(568.82,208.07) rotate(-4.1)" rx="1.88" ry="0.63"/>
<path fill="#ddbc63" d="
  M 560.50 209.04
  L 561.25 208.96
  Q 564.82 211.51 563.00 215.41
  Q 562.56 216.36 562.63 215.32
  Q 562.85 211.77 560.50 209.04
  Z"
/>
<path fill="#ddbc63" d="
  M 320.74 325.98
  Q 346.22 303.35 371.93 280.42
  Q 373.47 279.05 374.40 276.87
  Q 374.60 276.40 375.10 276.39
  L 389.03 276.19
  Q 390.02 276.17 389.46 277.00
  Q 388.66 278.17 387.21 279.47
  Q 333.84 327.58 310.96 347.22
  Q 308.60 349.24 305.61 346.86
  Q 298.56 341.23 291.82 335.18
  Q 259.44 306.07 227.37 277.24
  A 0.56 0.56 0.0 0 1 227.74 276.27
  L 241.09 276.21
  Q 241.53 276.20 241.84 276.52
  C 258.12 293.71 277.15 309.22 295.07 325.21
  Q 295.92 325.97 295.99 324.83
  C 296.02 324.36 296.07 323.58 295.87 323.07
  Q 289.72 307.40 283.93 291.61
  C 282.07 286.53 275.78 281.05 272.03 277.09
  A 0.34 0.34 0.0 0 1 272.27 276.52
  L 292.21 276.17
  Q 292.77 276.16 292.78 276.72
  Q 292.79 280.63 291.53 284.31
  Q 291.36 284.78 291.54 285.24
  L 307.91 328.65
  A 0.36 0.36 0.0 0 0 308.58 328.66
  Q 316.28 309.28 323.50 289.81
  C 325.14 285.40 324.53 281.21 323.62 276.83
  Q 323.54 276.46 323.92 276.46
  L 344.06 276.42
  A 0.52 0.51 -70.6 0 1 344.46 277.26
  C 341.10 281.40 335.12 285.57 333.23 290.35
  Q 326.43 307.60 320.13 325.57
  A 0.38 0.38 0.0 0 0 320.74 325.98
  Z"
/>
</svg>
