<?xml version="1.0" encoding="UTF-8" standalone="no"?>
<!DOCTYPE svg PUBLIC "-//W3C//DTD SVG 1.1//EN" "http://www.w3.org/Graphics/SVG/1.1/DTD/svg11.dtd">
<svg xmlns="http://www.w3.org/2000/svg" version="1.1" viewBox="0.00 0.00 879.00 552.00">
<g stroke-width="2.00" fill="none" stroke-linecap="butt">
<path stroke="#806e42" vector-effect="non-scaling-stroke" d="
  M 264.01 115.15
  L 263.37 116.22
  Q 263.10 116.65 262.59 116.67
  C 260.57 116.73 243.28 117.08 243.70 118.93
  A 0.91 0.90 -5.3 0 0 244.56 119.64
  L 258.75 120.13
  A 0.55 0.55 0.0 0 1 259.10 121.10
  Q 252.89 126.53 246.69 131.19
  C 223.28 148.77 200.35 166.99 176.97 184.60
  C 167.96 191.38 159.76 198.08 150.05 204.95
  Q 140.98 211.38 136.94 215.43
  C 132.76 219.64 135.04 223.90 138.93 227.40
  C 151.07 238.36 163.25 248.97 174.95 260.35
  Q 175.30 260.69 175.78 260.68
  L 192.94 260.16
  Q 195.25 260.10 193.53 258.55
  L 159.52 228.19
  A 0.76 0.75 -24.0 0 1 160.03 226.88
  L 225.80 226.93
  Q 226.23 226.93 226.46 227.31
  L 246.28 259.81
  Q 246.55 260.26 247.08 260.24
  Q 251.91 260.08 256.73 259.94
  C 262.41 259.78 269.41 260.49 275.81 260.18
  Q 276.44 260.15 276.11 259.62
  Q 275.28 258.25 274.16 257.08
  Q 260.21 242.46 246.00 227.99
  Q 245.50 227.48 246.21 227.40
  C 253.78 226.48 261.50 227.37 268.96 226.84
  Q 271.82 226.64 275.91 226.86
  C 280.33 227.11 285.04 226.67 289.04 226.79
  Q 303.14 227.23 317.28 226.92
  Q 317.71 226.91 317.88 227.30
  L 332.25 260.20
  Q 332.51 260.78 333.09 260.53
  C 334.85 259.80 336.81 260.78 338.15 260.78
  Q 341.75 260.77 345.33 260.09
  Q 345.83 260.00 345.77 259.49
  Q 345.55 257.45 344.68 255.56
  Q 338.78 242.74 332.89 228.74
  Q 332.21 227.13 333.96 227.13
  L 421.76 226.87
  A 0.58 0.57 -86.1 0 1 422.33 227.53
  L 416.99 259.96
  A 0.45 0.44 4.8 0 0 417.44 260.48
  L 441.75 260.38
  Q 443.65 260.37 443.33 258.50
  L 438.31 229.10
  Q 438.04 227.51 439.61 227.11
  C 442.76 226.31 447.37 226.96 449.79 226.97
  Q 488.39 227.13 526.35 226.86
  A 1.36 1.36 0.0 0 1 527.61 228.76
  L 514.70 258.62
  Q 513.96 260.34 515.83 260.30
  L 527.73 260.08
  Q 528.15 260.08 528.32 259.69
  L 542.55 227.23
  Q 542.72 226.85 543.13 226.85
  L 613.67 227.14
  A 0.46 0.46 0.0 0 1 614.00 227.91
  L 584.96 258.71
  Q 583.34 260.43 585.68 260.12
  L 588.69 259.71
  Q 589.17 259.65 589.47 260.04
  C 590.43 261.31 605.65 260.49 613.29 260.26
  Q 613.78 260.25 614.04 259.83
  C 620.71 249.09 626.75 237.66 634.27 227.51
  A 1.18 1.17 17.8 0 1 635.22 227.03
  L 699.06 226.89
  Q 699.55 226.89 699.99 227.10
  Q 701.47 227.79 700.45 228.69
  C 688.94 238.86 677.70 249.23 666.35 259.52
  A 0.56 0.56 0.0 0 0 666.77 260.49
  Q 675.13 259.70 683.49 260.46
  A 1.79 1.77 -62.7 0 0 684.86 260.01
  Q 703.63 243.29 722.21 226.68
  C 728.50 221.06 726.21 216.49 720.12 212.02
  C 716.55 209.40 713.24 206.55 709.61 204.05
  Q 701.36 198.36 693.80 191.71
  C 692.77 190.80 691.19 190.35 690.14 189.31
  C 686.75 185.94 683.09 183.42 679.20 180.70
  Q 673.29 176.55 670.41 174.37
  Q 632.66 145.82 595.42 116.63
  Q 595.03 116.33 594.53 116.33
  C 496.80 116.95 399.02 116.51 301.27 116.55
  C 292.85 116.55 282.68 117.05 273.12 115.98"
/>
<path stroke="#918f90" vector-effect="non-scaling-stroke" d="
  M 273.12 115.98
  L 280.19 106.88
  A 0.30 0.30 0.0 0 0 279.74 106.48
  L 271.32 114.37
  A 0.62 0.62 0.0 0 1 270.28 113.95
  C 270.17 111.91 269.36 93.16 268.97 93.08
  Q 268.46 92.98 268.43 93.50
  L 267.29 114.26
  A 0.55 0.55 0.0 0 1 266.36 114.63
  L 258.16 106.82
  A 0.42 0.42 0.0 0 0 257.52 107.35
  Q 260.40 111.90 264.01 115.15"
/>
<path stroke="#eedeb1" vector-effect="non-scaling-stroke" d="
  M 273.12 115.98
  L 272.55 116.01
  Q 272.08 116.03 272.15 116.49
  Q 272.90 121.15 267.96 122.13
  Q 267.46 122.22 267.16 121.80
  Q 265.05 118.79 264.01 115.15"
/>
<path stroke="#918f90" vector-effect="non-scaling-stroke" d="
  M 783.04 287.50
  L 782.96 288.00"
/>
<path stroke="#806e42" vector-effect="non-scaling-stroke" d="
  M 782.96 288.00
  C 782.63 289.10 783.21 291.58 782.04 291.75"
/>
<path stroke="#918f90" vector-effect="non-scaling-stroke" d="
  M 782.04 291.75
  C 781.77 290.50 781.21 289.65 779.84 289.38
  C 766.96 286.92 755.08 288.31 742.09 287.50
  A 1.47 1.45 -57.1 0 0 741.28 287.68
  Q 738.77 289.03 741.10 289.48
  C 746.40 290.49 746.01 295.69 746.05 299.75
  Q 746.27 321.25 746.23 342.75
  C 746.22 346.95 746.03 352.05 740.93 353.18
  C 740.55 353.27 739.73 353.99 739.85 354.19
  A 1.93 1.80 -14.4 0 0 741.50 355.09
  L 761.78 354.96
  Q 762.24 354.96 762.22 354.51
  Q 762.19 353.51 761.27 353.17
  C 757.65 351.83 756.80 349.85 756.66 345.95
  Q 756.27 335.21 756.59 324.35
  Q 756.61 323.75 757.21 323.75
  C 760.60 323.75 763.38 323.61 766.28 325.72
  C 772.38 330.14 776.39 340.13 780.01 346.71
  C 785.15 356.05 792.88 354.86 802.01 355.27
  A 0.47 0.47 0.0 0 0 802.45 354.57
  C 801.52 352.84 798.60 351.81 797.03 350.61
  C 787.90 343.58 784.25 331.18 774.16 324.86
  A 0.78 0.77 -34.0 0 1 774.44 323.44
  C 790.05 320.59 800.45 307.56 788.70 292.79
  C 786.99 290.65 789.40 287.48 785.72 286.76"
/>
<path stroke="#806e42" vector-effect="non-scaling-stroke" d="
  M 785.72 286.76
  L 785.29 277.74
  Q 785.29 277.55 785.12 277.45
  L 784.79 277.26
  Q 784.58 277.13 784.55 277.38
  L 783.04 287.50"
/>
<path stroke="#eedeb1" vector-effect="non-scaling-stroke" d="
  M 785.72 286.76
  Q 784.42 286.08 783.04 287.50"
/>
<path stroke="#eedeb1" vector-effect="non-scaling-stroke" d="
  M 782.04 291.75
  C 782.10 293.39 783.36 293.50 783.95 294.44
  C 785.42 296.71 784.11 298.35 784.27 300.90
  A 0.55 0.55 0.0 0 0 785.33 301.08
  Q 786.73 297.70 786.33 294.11
  Q 786.28 293.64 785.91 293.35
  Q 783.31 291.29 782.96 288.00"
/>
<path stroke="#918f90" vector-effect="non-scaling-stroke" d="
  M 147.1243 355.8139
  A 34.68 33.66 96.4 0 0 184.4402 325.1020
  A 34.68 33.66 96.4 0 0 154.8557 286.8861
  A 34.68 33.66 96.4 0 0 117.5398 317.5980
  A 34.68 33.66 96.4 0 0 147.1243 355.8139"
/>
<path stroke="#918f90" vector-effect="non-scaling-stroke" d="
  M 230.71 290.26
  C 237.22 291.59 241.70 294.78 244.88 300.78
  C 245.38 301.71 248.12 308.04 249.19 307.36
  A 0.58 0.55 -17.2 0 0 249.45 306.89
  L 249.82 290.28
  A 0.69 0.69 0.0 0 0 249.02 289.58
  C 247.20 289.86 245.58 290.21 243.69 289.72
  C 236.71 287.91 229.21 286.45 221.98 286.98
  C 190.51 289.30 179.67 334.41 206.35 350.57
  C 217.98 357.62 234.96 357.05 247.91 352.54
  Q 248.39 352.37 248.57 351.90
  Q 251.01 345.80 251.24 339.24
  Q 251.28 338.12 250.59 339.01
  C 246.64 344.04 245.07 348.75 237.99 351.09
  C 210.03 360.33 198.40 330.16 203.74 308.79
  C 206.82 296.47 217.89 287.63 230.71 290.26"
/>
<path stroke="#918f90" vector-effect="non-scaling-stroke" d="
  M 481.59 290.01
  C 469.41 286.47 455.57 284.85 445.09 291.33
  C 432.82 298.91 426.19 314.42 429.02 328.76
  C 434.42 356.06 463.56 360.65 485.56 352.30
  Q 486.05 352.12 486.16 351.60
  L 488.73 340.17
  A 0.80 0.80 0.0 0 0 487.27 339.56
  C 482.19 347.55 477.17 352.64 466.99 352.68
  Q 455.80 352.72 449.05 345.69
  C 439.18 335.41 436.95 316.25 442.78 303.52
  C 448.11 291.89 460.49 286.96 472.73 291.76
  C 479.60 294.45 481.86 300.45 485.65 307.72
  Q 486.14 308.65 486.34 307.62
  C 487.36 302.33 486.87 295.69 487.00 290.21
  Q 487.02 289.60 486.41 289.67
  L 482.61 290.10
  Q 482.09 290.15 481.59 290.01"
/>
<path stroke="#918f90" vector-effect="non-scaling-stroke" d="
  M 522.3762 355.7833
  A 34.66 33.70 96.7 0 0 559.8899 325.2918
  A 34.66 33.70 96.7 0 0 530.4638 286.9367
  A 34.66 33.70 96.7 0 0 492.9501 317.4282
  A 34.66 33.70 96.7 0 0 522.3762 355.7833"
/>
<path stroke="#918f90" vector-effect="non-scaling-stroke" d="
  M 698.3147 355.7366
  A 34.67 33.68 97.2 0 0 736.0744 325.5612
  A 34.67 33.68 97.2 0 0 707.0053 286.9434
  A 34.67 33.68 97.2 0 0 669.2456 317.1188
  A 34.67 33.68 97.2 0 0 698.3147 355.7366"
/>
<path stroke="#918f90" vector-effect="non-scaling-stroke" d="
  M 367.20 329.85
  C 369.01 334.09 375.48 346.98 374.60 350.97
  Q 374.47 351.52 373.96 351.76
  L 370.48 353.38
  Q 370.01 353.60 369.81 354.08
  Q 369.64 354.50 369.83 354.88
  Q 370.06 355.35 370.58 355.34
  C 372.99 355.30 394.54 355.29 394.75 354.41
  A 0.72 0.72 0.0 0 0 394.25 353.55
  Q 387.94 351.78 385.37 345.81
  Q 373.31 317.80 361.18 289.82
  C 359.99 287.06 356.43 286.02 355.20 289.19
  Q 346.36 312.00 334.95 343.94
  Q 333.33 348.48 330.31 351.65
  Q 329.97 352.01 329.48 352.12
  Q 327.04 352.70 324.92 354.06
  A 0.47 0.47 0.0 0 0 325.13 354.92
  Q 333.83 355.67 342.52 354.94
  Q 342.99 354.90 343.24 354.50
  L 343.44 354.15
  Q 343.79 353.57 343.13 353.40
  C 341.46 352.96 338.99 352.51 338.00 351.00
  C 336.22 348.31 341.54 335.29 343.66 330.24
  Q 343.84 329.80 344.32 329.82
  C 351.21 330.13 359.89 330.84 366.61 329.54
  Q 367.03 329.46 367.20 329.85"
/>
<path stroke="#918f90" vector-effect="non-scaling-stroke" d="
  M 91.06 325.01
  A 0.92 0.92 0.0 0 1 91.41 323.33
  C 104.38 321.17 114.88 311.19 108.17 297.34
  C 105.00 290.81 97.98 288.46 90.89 288.14
  Q 74.09 287.39 57.26 287.79
  Q 56.70 287.81 56.59 288.36
  L 56.49 288.86
  Q 56.39 289.38 56.91 289.46
  Q 62.64 290.31 62.68 296.75
  Q 62.88 329.57 62.70 346.44
  Q 62.67 349.66 60.33 351.85
  C 59.38 352.73 57.80 352.93 56.71 353.96
  Q 56.15 354.49 56.87 354.79
  C 59.06 355.68 61.30 355.02 63.11 355.00
  Q 70.61 354.91 78.13 355.33
  Q 78.91 355.37 78.76 354.61
  L 78.64 353.98
  Q 78.54 353.47 78.05 353.28
  Q 73.73 351.67 73.39 346.94
  Q 72.59 335.76 73.30 324.47
  A 0.76 0.75 -0.0 0 1 74.01 323.77
  C 89.93 322.83 90.47 341.10 100.04 350.91
  C 103.92 354.89 109.97 355.47 115.20 355.17
  C 116.01 355.13 117.64 355.51 118.47 355.12
  A 0.95 0.95 0.0 0 0 118.46 353.39
  C 105.99 347.75 102.42 332.48 91.06 325.01"
/>
<path stroke="#918f90" vector-effect="non-scaling-stroke" d="
  M 271.38 318.97
  L 304.12 318.97
  Q 305.70 318.97 305.71 320.54
  Q 305.81 334.30 305.65 346.44
  Q 305.57 351.81 300.42 353.31
  A 0.79 0.79 0.0 0 0 300.32 354.79
  C 301.39 355.26 303.67 354.95 304.57 354.96
  Q 313.29 355.12 322.07 355.04
  A 0.42 0.42 0.0 0 0 322.36 354.31
  C 319.79 351.82 316.61 352.09 316.36 347.57
  C 315.43 330.53 316.30 312.91 316.40 295.81
  C 316.44 289.93 321.68 290.62 321.99 288.24
  Q 322.07 287.59 321.42 287.60
  L 300.22 287.76
  A 0.68 0.67 -36.6 0 0 300.02 289.08
  C 306.27 291.00 305.61 294.90 305.72 301.20
  Q 305.83 307.95 305.71 314.73
  A 0.93 0.93 0.0 0 1 304.78 315.64
  L 271.43 315.81
  Q 270.94 315.81 270.89 315.32
  Q 269.94 305.00 271.03 294.65
  C 271.36 291.50 273.00 290.11 275.92 289.54
  Q 276.50 289.43 276.44 288.85
  L 276.37 288.12
  Q 276.31 287.47 275.65 287.51
  Q 265.42 288.11 255.21 287.40
  A 0.72 0.71 82.0 0 0 254.49 288.36
  L 254.70 288.93
  Q 254.87 289.38 255.34 289.53
  Q 260.27 291.06 260.28 296.50
  Q 260.32 321.59 260.20 346.69
  Q 260.18 351.39 255.72 353.11
  C 255.38 353.24 254.45 354.06 254.49 354.22
  A 1.24 0.96 80.9 0 0 255.50 355.17
  L 275.82 354.93
  A 0.80 0.80 0.0 0 0 276.38 353.56
  Q 275.11 352.30 273.28 352.21
  Q 272.77 352.18 272.48 351.76
  Q 270.93 349.49 270.86 346.00
  Q 270.51 328.66 270.77 319.57
  Q 270.78 318.97 271.38 318.97"
/>
<path stroke="#918f90" vector-effect="non-scaling-stroke" d="
  M 581.31 351.89
  Q 580.27 351.84 580.26 350.80
  Q 580.20 323.67 580.30 296.81
  Q 580.32 290.63 585.87 289.32
  Q 586.46 289.18 586.25 288.61
  L 586.05 288.07
  Q 585.87 287.58 585.34 287.58
  L 564.20 287.82
  Q 563.82 287.82 563.80 288.21
  Q 563.76 289.31 564.75 289.62
  Q 569.89 291.24 569.92 296.30
  Q 570.09 321.37 569.83 346.43
  Q 569.78 351.34 564.99 352.93
  Q 563.67 353.37 564.21 354.60
  Q 564.39 355.03 564.86 355.03
  L 611.39 355.19
  Q 612.04 355.19 612.03 354.55
  L 611.92 342.02
  A 0.75 0.74 58.9 0 0 610.52 341.67
  C 607.50 347.30 604.13 351.81 597.07 352.00
  Q 588.89 352.23 581.31 351.89"
/>
<path stroke="#918f90" vector-effect="non-scaling-stroke" d="
  M 634.60 351.98
  Q 633.07 351.96 633.06 350.43
  Q 632.92 325.03 633.05 300.41
  C 633.08 294.86 632.68 291.33 638.03 289.38
  A 0.86 0.86 0.0 0 0 637.73 287.71
  L 616.69 287.77
  Q 616.08 287.77 616.25 288.36
  C 617.05 291.14 622.02 289.12 622.40 295.97
  C 623.29 311.97 622.79 328.29 622.67 344.31
  Q 622.63 349.06 620.53 351.84
  Q 620.19 352.29 619.62 352.37
  Q 617.60 352.62 616.43 354.07
  A 0.62 0.61 19.6 0 0 616.91 355.07
  L 664.13 355.27
  Q 664.85 355.27 664.83 354.55
  L 664.53 341.26
  Q 664.49 339.63 663.61 341.00
  C 659.60 347.27 657.67 352.02 649.25 352.03
  Q 641.50 352.04 634.60 351.98"
/>
<path stroke="#806e42" vector-effect="non-scaling-stroke" d="
  M 796.6049 289.8139
  A 3.06 1.03 -3.3 0 0 793.4907 288.9617
  A 3.06 1.03 -3.3 0 0 790.4951 290.1661
  A 3.06 1.03 -3.3 0 0 793.6093 291.0183
  A 3.06 1.03 -3.3 0 0 796.6049 289.8139"
/>
<path stroke="#806e42" vector-effect="non-scaling-stroke" d="
  M 446.94 454.90
  A 0.30 0.30 0.0 0 1 446.45 454.59
  C 451.55 437.81 458.85 421.67 464.61 405.06
  C 467.19 397.62 477.16 393.16 480.68 385.82
  A 0.41 0.41 0.0 0 0 480.31 385.23
  L 454.08 385.26
  Q 453.73 385.26 453.42 385.11
  Q 452.67 384.75 452.01 384.87
  Q 451.35 384.98 451.48 385.63
  Q 452.37 390.21 452.85 394.86
  C 453.30 399.31 451.81 403.00 450.27 407.05
  Q 440.72 432.12 431.03 457.12
  Q 430.81 457.69 430.44 458.15
  A 0.53 0.53 0.0 0 1 429.53 458.00
  L 406.82 397.55
  Q 406.64 397.07 406.80 396.58
  Q 408.51 391.17 408.54 385.50
  Q 408.54 384.96 408.01 384.97
  L 379.44 385.37
  A 0.32 0.32 0.0 0 0 379.21 385.91
  Q 386.33 393.41 393.23 401.07
  Q 394.98 403.01 395.86 405.49
  Q 403.72 427.67 412.55 449.48
  Q 413.29 451.30 413.12 453.74
  Q 413.08 454.42 412.55 453.98
  Q 404.24 446.98 396.24 439.65
  C 379.59 424.39 362.55 409.58 345.68 394.57
  Q 341.03 390.44 337.56 385.24
  Q 337.33 384.90 336.93 384.91
  L 316.96 385.23
  Q 315.78 385.25 316.66 386.04
  C 348.10 414.06 379.41 442.25 410.71 470.42
  C 415.08 474.35 420.25 478.44 424.94 482.58
  C 427.61 484.94 431.28 486.21 434.05 483.81
  Q 456.35 464.52 533.89 395.41
  Q 539.21 390.66 543.43 386.10
  Q 544.38 385.06 542.97 385.08
  L 522.95 385.27
  Q 522.46 385.28 522.29 385.74
  Q 521.17 388.86 519.69 390.18
  Q 483.33 422.65 446.94 454.90"
/>
<path stroke="#806e42" vector-effect="non-scaling-stroke" d="
  M 465.34 132.07
  Q 467.95 133.70 470.74 135.01
  Q 488.55 143.38 506.43 151.57
  Q 510.33 153.36 513.84 154.25
  Q 514.38 154.39 514.89 154.14
  L 562.41 130.53
  Q 564.15 129.67 562.21 129.71
  C 529.70 130.43 497.54 129.27 465.19 129.86
  Q 462.95 129.90 461.22 130.66
  Q 460.16 131.13 461.31 131.30
  L 464.44 131.74
  Q 464.92 131.81 465.34 132.07"
/>
<path stroke="#806e42" vector-effect="non-scaling-stroke" d="
  M 397.51 130.08
  L 299.54 129.75
  A 0.91 0.91 0.0 0 0 299.14 131.47
  L 345.85 154.26
  Q 346.36 154.51 346.91 154.39
  Q 349.05 153.92 350.49 153.24
  Q 374.17 142.08 397.77 131.27
  A 0.62 0.62 0.0 0 0 397.51 130.08"
/>
<path stroke="#806e42" vector-effect="non-scaling-stroke" d="
  M 474.62 151.47
  C 468.82 148.95 462.53 145.71 456.34 143.14
  C 447.44 139.43 439.21 134.11 430.18 130.90
  Q 429.66 130.72 429.16 130.95
  L 361.96 162.52
  A 1.03 1.02 -39.9 0 0 361.80 164.28
  Q 394.89 187.63 427.70 210.57
  Q 428.92 211.43 430.26 211.98
  Q 430.65 212.13 430.99 211.89
  L 498.64 164.55
  Q 500.17 163.48 498.66 162.37
  C 497.79 161.74 496.09 161.60 494.95 161.02
  Q 484.93 155.94 474.62 151.47"
/>
<path stroke="#806e42" vector-effect="non-scaling-stroke" d="
  M 609.79 202.66
  Q 616.34 205.95 622.75 209.48
  A 0.30 0.30 0.0 0 0 623.19 209.20
  Q 621.88 181.87 620.45 154.56
  C 620.40 153.68 619.40 151.99 618.52 151.34
  Q 605.64 141.77 593.06 131.74
  Q 592.65 131.42 592.15 131.57
  Q 588.32 132.68 584.72 134.45
  Q 557.33 147.93 530.58 161.14
  A 1.36 1.36 0.0 0 0 530.59 163.59
  Q 570.45 182.88 609.79 202.66"
/>
<path stroke="#806e42" vector-effect="non-scaling-stroke" d="
  M 268.53 143.09
  Q 267.71 138.14 267.24 133.16
  A 0.79 0.79 0.0 0 0 265.98 132.60
  Q 254.30 141.29 242.64 150.75
  C 239.58 153.23 239.61 156.54 239.44 160.75
  Q 238.43 184.84 237.24 208.92
  Q 237.21 209.46 237.69 209.21
  Q 264.84 195.49 292.24 182.28
  C 304.99 176.14 317.22 168.82 330.40 163.61
  A 0.86 0.86 0.0 0 0 330.53 162.07
  C 316.24 153.46 300.53 146.47 285.44 139.40
  C 280.81 137.23 275.26 132.96 270.35 132.49
  Q 269.83 132.44 269.80 132.97
  L 269.34 143.04
  Q 269.16 146.93 268.53 143.09"
/>
<path stroke="#806e42" vector-effect="non-scaling-stroke" d="
  M 225.75 179.04
  C 225.53 174.06 226.29 169.12 225.89 164.08
  Q 225.85 163.54 225.42 163.87
  L 162.57 212.12
  Q 160.56 213.66 162.99 214.36
  C 164.34 214.74 167.58 213.74 169.33 213.74
  Q 193.25 213.85 217.15 213.46
  C 218.77 213.43 221.27 214.16 223.45 213.49
  Q 223.96 213.33 223.96 212.79
  Q 224.02 197.99 225.62 183.34
  Q 225.85 181.28 225.75 179.04"
/>
<path stroke="#806e42" vector-effect="non-scaling-stroke" d="
  M 639.55 213.50
  Q 668.49 213.54 697.48 213.93
  A 0.63 0.63 0.0 0 0 698.08 213.06
  Q 697.27 211.09 695.31 209.64
  Q 664.73 187.12 634.92 163.51
  A 0.30 0.29 19.0 0 0 634.44 163.74
  C 634.56 180.43 635.96 196.96 636.28 213.63
  Q 636.29 214.30 636.94 214.12
  C 637.92 213.84 638.60 213.50 639.55 213.50"
/>
<path stroke="#806e42" vector-effect="non-scaling-stroke" d="
  M 463.75 213.70
  C 481.11 213.46 498.09 213.73 515.78 213.49
  Q 521.37 213.42 526.89 213.81
  A 0.91 0.90 -8.9 0 0 527.80 212.57
  Q 520.30 194.23 512.29 176.20
  Q 511.35 174.06 510.57 172.70
  Q 510.29 172.19 509.82 172.53
  Q 482.23 192.34 454.21 211.53
  C 453.77 211.83 453.34 212.88 453.53 213.24
  A 2.02 1.98 -17.4 0 0 455.53 214.26
  Q 459.74 213.75 463.75 213.70"
/>
<path stroke="#806e42" vector-effect="non-scaling-stroke" d="
  M 362.47 213.72
  C 363.73 213.15 366.01 213.72 367.00 213.71
  Q 387.77 213.36 408.59 213.80
  A 0.27 0.27 0.0 0 0 408.75 213.31
  L 350.17 172.64
  Q 349.77 172.36 349.58 172.80
  Q 342.52 188.59 333.63 210.16
  Q 332.87 212.01 332.56 213.49
  Q 332.44 214.03 333.00 214.00
  Q 347.26 213.05 361.54 213.90
  Q 362.02 213.93 362.47 213.72"
/>
<path stroke="#806e42" vector-effect="non-scaling-stroke" d="
  M 529.91 177.83
  C 528.76 177.26 527.37 176.04 527.03 174.75
  Q 526.86 174.11 526.78 174.77
  Q 526.63 175.99 527.03 176.96
  Q 532.58 190.20 542.72 213.18
  Q 542.92 213.63 543.41 213.64
  L 598.50 213.82
  A 0.87 0.87 0.0 0 0 598.90 212.17
  Q 563.94 194.65 529.91 177.83"
/>
<path stroke="#806e42" vector-effect="non-scaling-stroke" d="
  M 301.98 213.37
  C 306.77 213.22 311.33 213.94 316.01 214.34
  Q 317.20 214.45 317.68 213.36
  C 323.01 201.38 327.67 189.41 333.52 177.99
  A 0.79 0.79 0.0 0 0 332.47 176.93
  L 260.66 212.41
  A 0.73 0.73 0.0 0 0 261.08 213.78
  C 265.67 213.13 271.94 213.74 275.21 213.75
  Q 288.60 213.80 301.98 213.37"
/>
<path stroke="#918f90" vector-effect="non-scaling-stroke" d="
  M 756.59 291.61
  L 756.45 319.51
  A 1.25 1.25 0.0 0 0 757.69 320.77
  L 768.66 320.83
  A 14.35 13.96 -89.7 0 0 782.70 306.55
  L 782.70 304.85
  A 14.35 13.96 -89.7 0 0 768.82 290.43
  L 757.85 290.37
  A 1.25 1.25 0.0 0 0 756.59 291.61"
/>
<path stroke="#918f90" vector-effect="non-scaling-stroke" d="
  M 173.00 326.50
  C 173.75 315.71 172.37 302.09 164.47 294.80
  C 155.08 286.15 138.11 289.03 132.73 301.03
  C 124.97 318.36 126.95 357.76 155.80 352.16
  C 168.40 349.72 172.23 337.62 173.00 326.50"
/>
<path stroke="#918f90" vector-effect="non-scaling-stroke" d="
  M 516.52 292.23
  C 497.67 302.51 499.23 351.58 525.36 352.94
  C 539.44 353.68 546.80 342.34 548.18 329.85
  C 549.26 320.08 548.82 306.15 542.91 298.05
  C 536.83 289.70 525.38 287.39 516.52 292.23"
/>
<path stroke="#918f90" vector-effect="non-scaling-stroke" d="
  M 724.75 327.75
  C 726.15 313.30 723.11 292.20 705.27 289.99
  C 675.64 286.33 674.70 335.59 690.25 348.68
  C 698.78 355.86 711.51 353.54 718.39 345.58
  C 722.69 340.60 724.11 334.34 724.75 327.75"
/>
<path stroke="#918f90" vector-effect="non-scaling-stroke" d="
  M 344.96 326.39
  A 0.30 0.30 0.0 0 0 345.25 326.80
  L 365.25 326.31
  A 0.30 0.30 0.0 0 0 365.51 325.89
  L 354.89 300.53
  A 0.30 0.30 0.0 0 0 354.33 300.54
  L 344.96 326.39"
/>
<path stroke="#918f90" vector-effect="non-scaling-stroke" d="
  M 73.01 292.20
  L 72.91 319.04
  A 1.78 1.78 0.0 0 0 74.69 320.83
  L 85.00 320.87
  A 14.27 14.23 -89.8 0 0 99.28 306.65
  L 99.28 304.79
  A 14.27 14.23 -89.8 0 0 85.10 290.47
  L 74.79 290.43
  A 1.78 1.78 0.0 0 0 73.01 292.20"
/>
</g>
<path fill="#231f20" d="
  M 0.00 0.00
  L 879.00 0.00
  L 879.00 552.00
  L 0.00 552.00
  L 0.00 0.00
  Z
  M 264.01 115.15
  L 263.37 116.22
  Q 263.10 116.65 262.59 116.67
  C 260.57 116.73 243.28 117.08 243.70 118.93
  A 0.91 0.90 -5.3 0 0 244.56 119.64
  L 258.75 120.13
  A 0.55 0.55 0.0 0 1 259.10 121.10
  Q 252.89 126.53 246.69 131.19
  C 223.28 148.77 200.35 166.99 176.97 184.60
  C 167.96 191.38 159.76 198.08 150.05 204.95
  Q 140.98 211.38 136.94 215.43
  C 132.76 219.64 135.04 223.90 138.93 227.40
  C 151.07 238.36 163.25 248.97 174.95 260.35
  Q 175.30 260.69 175.78 260.68
  L 192.94 260.16
  Q 195.25 260.10 193.53 258.55
  L 159.52 228.19
  A 0.76 0.75 -24.0 0 1 160.03 226.88
  L 225.80 226.93
  Q 226.23 226.93 226.46 227.31
  L 246.28 259.81
  Q 246.55 260.26 247.08 260.24
  Q 251.91 260.08 256.73 259.94
  C 262.41 259.78 269.41 260.49 275.81 260.18
  Q 276.44 260.15 276.11 259.62
  Q 275.28 258.25 274.16 257.08
  Q 260.21 242.46 246.00 227.99
  Q 245.50 227.48 246.21 227.40
  C 253.78 226.48 261.50 227.37 268.96 226.84
  Q 271.82 226.64 275.91 226.86
  C 280.33 227.11 285.04 226.67 289.04 226.79
  Q 303.14 227.23 317.28 226.92
  Q 317.71 226.91 317.88 227.30
  L 332.25 260.20
  Q 332.51 260.78 333.09 260.53
  C 334.85 259.80 336.81 260.78 338.15 260.78
  Q 341.75 260.77 345.33 260.09
  Q 345.83 260.00 345.77 259.49
  Q 345.55 257.45 344.68 255.56
  Q 338.78 242.74 332.89 228.74
  Q 332.21 227.13 333.96 227.13
  L 421.76 226.87
  A 0.58 0.57 -86.1 0 1 422.33 227.53
  L 416.99 259.96
  A 0.45 0.44 4.8 0 0 417.44 260.48
  L 441.75 260.38
  Q 443.65 260.37 443.33 258.50
  L 438.31 229.10
  Q 438.04 227.51 439.61 227.11
  C 442.76 226.31 447.37 226.96 449.79 226.97
  Q 488.39 227.13 526.35 226.86
  A 1.36 1.36 0.0 0 1 527.61 228.76
  L 514.70 258.62
  Q 513.96 260.34 515.83 260.30
  L 527.73 260.08
  Q 528.15 260.08 528.32 259.69
  L 542.55 227.23
  Q 542.72 226.85 543.13 226.85
  L 613.67 227.14
  A 0.46 0.46 0.0 0 1 614.00 227.91
  L 584.96 258.71
  Q 583.34 260.43 585.68 260.12
  L 588.69 259.71
  Q 589.17 259.65 589.47 260.04
  C 590.43 261.31 605.65 260.49 613.29 260.26
  Q 613.78 260.25 614.04 259.83
  C 620.71 249.09 626.75 237.66 634.27 227.51
  A 1.18 1.17 17.8 0 1 635.22 227.03
  L 699.06 226.89
  Q 699.55 226.89 699.99 227.10
  Q 701.47 227.79 700.45 228.69
  C 688.94 238.86 677.70 249.23 666.35 259.52
  A 0.56 0.56 0.0 0 0 666.77 260.49
  Q 675.13 259.70 683.49 260.46
  A 1.79 1.77 -62.7 0 0 684.86 260.01
  Q 703.63 243.29 722.21 226.68
  C 728.50 221.06 726.21 216.49 720.12 212.02
  C 716.55 209.40 713.24 206.55 709.61 204.05
  Q 701.36 198.36 693.80 191.71
  C 692.77 190.80 691.19 190.35 690.14 189.31
  C 686.75 185.94 683.09 183.42 679.20 180.70
  Q 673.29 176.55 670.41 174.37
  Q 632.66 145.82 595.42 116.63
  Q 595.03 116.33 594.53 116.33
  C 496.80 116.95 399.02 116.51 301.27 116.55
  C 292.85 116.55 282.68 117.05 273.12 115.98
  L 280.19 106.88
  A 0.30 0.30 0.0 0 0 279.74 106.48
  L 271.32 114.37
  A 0.62 0.62 0.0 0 1 270.28 113.95
  C 270.17 111.91 269.36 93.16 268.97 93.08
  Q 268.46 92.98 268.43 93.50
  L 267.29 114.26
  A 0.55 0.55 0.0 0 1 266.36 114.63
  L 258.16 106.82
  A 0.42 0.42 0.0 0 0 257.52 107.35
  Q 260.40 111.90 264.01 115.15
  Z
  M 783.04 287.50
  L 782.96 288.00
  C 782.63 289.10 783.21 291.58 782.04 291.75
  C 781.77 290.50 781.21 289.65 779.84 289.38
  C 766.96 286.92 755.08 288.31 742.09 287.50
  A 1.47 1.45 -57.1 0 0 741.28 287.68
  Q 738.77 289.03 741.10 289.48
  C 746.40 290.49 746.01 295.69 746.05 299.75
  Q 746.27 321.25 746.23 342.75
  C 746.22 346.95 746.03 352.05 740.93 353.18
  C 740.55 353.27 739.73 353.99 739.85 354.19
  A 1.93 1.80 -14.4 0 0 741.50 355.09
  L 761.78 354.96
  Q 762.24 354.96 762.22 354.51
  Q 762.19 353.51 761.27 353.17
  C 757.65 351.83 756.80 349.85 756.66 345.95
  Q 756.27 335.21 756.59 324.35
  Q 756.61 323.75 757.21 323.75
  C 760.60 323.75 763.38 323.61 766.28 325.72
  C 772.38 330.14 776.39 340.13 780.01 346.71
  C 785.15 356.05 792.88 354.86 802.01 355.27
  A 0.47 0.47 0.0 0 0 802.45 354.57
  C 801.52 352.84 798.60 351.81 797.03 350.61
  C 787.90 343.58 784.25 331.18 774.16 324.86
  A 0.78 0.77 -34.0 0 1 774.44 323.44
  C 790.05 320.59 800.45 307.56 788.70 292.79
  C 786.99 290.65 789.40 287.48 785.72 286.76
  L 785.29 277.74
  Q 785.29 277.55 785.12 277.45
  L 784.79 277.26
  Q 784.58 277.13 784.55 277.38
  L 783.04 287.50
  Z
  M 147.1243 355.8139
  A 34.68 33.66 96.4 0 0 184.4402 325.1020
  A 34.68 33.66 96.4 0 0 154.8557 286.8861
  A 34.68 33.66 96.4 0 0 117.5398 317.5980
  A 34.68 33.66 96.4 0 0 147.1243 355.8139
  Z
  M 230.71 290.26
  C 237.22 291.59 241.70 294.78 244.88 300.78
  C 245.38 301.71 248.12 308.04 249.19 307.36
  A 0.58 0.55 -17.2 0 0 249.45 306.89
  L 249.82 290.28
  A 0.69 0.69 0.0 0 0 249.02 289.58
  C 247.20 289.86 245.58 290.21 243.69 289.72
  C 236.71 287.91 229.21 286.45 221.98 286.98
  C 190.51 289.30 179.67 334.41 206.35 350.57
  C 217.98 357.62 234.96 357.05 247.91 352.54
  Q 248.39 352.37 248.57 351.90
  Q 251.01 345.80 251.24 339.24
  Q 251.28 338.12 250.59 339.01
  C 246.64 344.04 245.07 348.75 237.99 351.09
  C 210.03 360.33 198.40 330.16 203.74 308.79
  C 206.82 296.47 217.89 287.63 230.71 290.26
  Z
  M 481.59 290.01
  C 469.41 286.47 455.57 284.85 445.09 291.33
  C 432.82 298.91 426.19 314.42 429.02 328.76
  C 434.42 356.06 463.56 360.65 485.56 352.30
  Q 486.05 352.12 486.16 351.60
  L 488.73 340.17
  A 0.80 0.80 0.0 0 0 487.27 339.56
  C 482.19 347.55 477.17 352.64 466.99 352.68
  Q 455.80 352.72 449.05 345.69
  C 439.18 335.41 436.95 316.25 442.78 303.52
  C 448.11 291.89 460.49 286.96 472.73 291.76
  C 479.60 294.45 481.86 300.45 485.65 307.72
  Q 486.14 308.65 486.34 307.62
  C 487.36 302.33 486.87 295.69 487.00 290.21
  Q 487.02 289.60 486.41 289.67
  L 482.61 290.10
  Q 482.09 290.15 481.59 290.01
  Z
  M 522.3762 355.7833
  A 34.66 33.70 96.7 0 0 559.8899 325.2918
  A 34.66 33.70 96.7 0 0 530.4638 286.9367
  A 34.66 33.70 96.7 0 0 492.9501 317.4282
  A 34.66 33.70 96.7 0 0 522.3762 355.7833
  Z
  M 698.3147 355.7366
  A 34.67 33.68 97.2 0 0 736.0744 325.5612
  A 34.67 33.68 97.2 0 0 707.0053 286.9434
  A 34.67 33.68 97.2 0 0 669.2456 317.1188
  A 34.67 33.68 97.2 0 0 698.3147 355.7366
  Z
  M 367.20 329.85
  C 369.01 334.09 375.48 346.98 374.60 350.97
  Q 374.47 351.52 373.96 351.76
  L 370.48 353.38
  Q 370.01 353.60 369.81 354.08
  Q 369.64 354.50 369.83 354.88
  Q 370.06 355.35 370.58 355.34
  C 372.99 355.30 394.54 355.29 394.75 354.41
  A 0.72 0.72 0.0 0 0 394.25 353.55
  Q 387.94 351.78 385.37 345.81
  Q 373.31 317.80 361.18 289.82
  C 359.99 287.06 356.43 286.02 355.20 289.19
  Q 346.36 312.00 334.95 343.94
  Q 333.33 348.48 330.31 351.65
  Q 329.97 352.01 329.48 352.12
  Q 327.04 352.70 324.92 354.06
  A 0.47 0.47 0.0 0 0 325.13 354.92
  Q 333.83 355.67 342.52 354.94
  Q 342.99 354.90 343.24 354.50
  L 343.44 354.15
  Q 343.79 353.57 343.13 353.40
  C 341.46 352.96 338.99 352.51 338.00 351.00
  C 336.22 348.31 341.54 335.29 343.66 330.24
  Q 343.84 329.80 344.32 329.82
  C 351.21 330.13 359.89 330.84 366.61 329.54
  Q 367.03 329.46 367.20 329.85
  Z
  M 91.06 325.01
  A 0.92 0.92 0.0 0 1 91.41 323.33
  C 104.38 321.17 114.88 311.19 108.17 297.34
  C 105.00 290.81 97.98 288.46 90.89 288.14
  Q 74.09 287.39 57.26 287.79
  Q 56.70 287.81 56.59 288.36
  L 56.49 288.86
  Q 56.39 289.38 56.91 289.46
  Q 62.64 290.31 62.68 296.75
  Q 62.88 329.57 62.70 346.44
  Q 62.67 349.66 60.33 351.85
  C 59.38 352.73 57.80 352.93 56.71 353.96
  Q 56.15 354.49 56.87 354.79
  C 59.06 355.68 61.30 355.02 63.11 355.00
  Q 70.61 354.91 78.13 355.33
  Q 78.91 355.37 78.76 354.61
  L 78.64 353.98
  Q 78.54 353.47 78.05 353.28
  Q 73.73 351.67 73.39 346.94
  Q 72.59 335.76 73.30 324.47
  A 0.76 0.75 -0.0 0 1 74.01 323.77
  C 89.93 322.83 90.47 341.10 100.04 350.91
  C 103.92 354.89 109.97 355.47 115.20 355.17
  C 116.01 355.13 117.64 355.51 118.47 355.12
  A 0.95 0.95 0.0 0 0 118.46 353.39
  C 105.99 347.75 102.42 332.48 91.06 325.01
  Z
  M 271.38 318.97
  L 304.12 318.97
  Q 305.70 318.97 305.71 320.54
  Q 305.81 334.30 305.65 346.44
  Q 305.57 351.81 300.42 353.31
  A 0.79 0.79 0.0 0 0 300.32 354.79
  C 301.39 355.26 303.67 354.95 304.57 354.96
  Q 313.29 355.12 322.07 355.04
  A 0.42 0.42 0.0 0 0 322.36 354.31
  C 319.79 351.82 316.61 352.09 316.36 347.57
  C 315.43 330.53 316.30 312.91 316.40 295.81
  C 316.44 289.93 321.68 290.62 321.99 288.24
  Q 322.07 287.59 321.42 287.60
  L 300.22 287.76
  A 0.68 0.67 -36.6 0 0 300.02 289.08
  C 306.27 291.00 305.61 294.90 305.72 301.20
  Q 305.83 307.95 305.71 314.73
  A 0.93 0.93 0.0 0 1 304.78 315.64
  L 271.43 315.81
  Q 270.94 315.81 270.89 315.32
  Q 269.94 305.00 271.03 294.65
  C 271.36 291.50 273.00 290.11 275.92 289.54
  Q 276.50 289.43 276.44 288.85
  L 276.37 288.12
  Q 276.31 287.47 275.65 287.51
  Q 265.42 288.11 255.21 287.40
  A 0.72 0.71 82.0 0 0 254.49 288.36
  L 254.70 288.93
  Q 254.87 289.38 255.34 289.53
  Q 260.27 291.06 260.28 296.50
  Q 260.32 321.59 260.20 346.69
  Q 260.18 351.39 255.72 353.11
  C 255.38 353.24 254.45 354.06 254.49 354.22
  A 1.24 0.96 80.9 0 0 255.50 355.17
  L 275.82 354.93
  A 0.80 0.80 0.0 0 0 276.38 353.56
  Q 275.11 352.30 273.28 352.21
  Q 272.77 352.18 272.48 351.76
  Q 270.93 349.49 270.86 346.00
  Q 270.51 328.66 270.77 319.57
  Q 270.78 318.97 271.38 318.97
  Z
  M 581.31 351.89
  Q 580.27 351.84 580.26 350.80
  Q 580.20 323.67 580.30 296.81
  Q 580.32 290.63 585.87 289.32
  Q 586.46 289.18 586.25 288.61
  L 586.05 288.07
  Q 585.87 287.58 585.34 287.58
  L 564.20 287.82
  Q 563.82 287.82 563.80 288.21
  Q 563.76 289.31 564.75 289.62
  Q 569.89 291.24 569.92 296.30
  Q 570.09 321.37 569.83 346.43
  Q 569.78 351.34 564.99 352.93
  Q 563.67 353.37 564.21 354.60
  Q 564.39 355.03 564.86 355.03
  L 611.39 355.19
  Q 612.04 355.19 612.03 354.55
  L 611.92 342.02
  A 0.75 0.74 58.9 0 0 610.52 341.67
  C 607.50 347.30 604.13 351.81 597.07 352.00
  Q 588.89 352.23 581.31 351.89
  Z
  M 634.60 351.98
  Q 633.07 351.96 633.06 350.43
  Q 632.92 325.03 633.05 300.41
  C 633.08 294.86 632.68 291.33 638.03 289.38
  A 0.86 0.86 0.0 0 0 637.73 287.71
  L 616.69 287.77
  Q 616.08 287.77 616.25 288.36
  C 617.05 291.14 622.02 289.12 622.40 295.97
  C 623.29 311.97 622.79 328.29 622.67 344.31
  Q 622.63 349.06 620.53 351.84
  Q 620.19 352.29 619.62 352.37
  Q 617.60 352.62 616.43 354.07
  A 0.62 0.61 19.6 0 0 616.91 355.07
  L 664.13 355.27
  Q 664.85 355.27 664.83 354.55
  L 664.53 341.26
  Q 664.49 339.63 663.61 341.00
  C 659.60 347.27 657.67 352.02 649.25 352.03
  Q 641.50 352.04 634.60 351.98
  Z
  M 796.6049 289.8139
  A 3.06 1.03 -3.3 0 0 793.4907 288.9617
  A 3.06 1.03 -3.3 0 0 790.4951 290.1661
  A 3.06 1.03 -3.3 0 0 793.6093 291.0183
  A 3.06 1.03 -3.3 0 0 796.6049 289.8139
  Z
  M 446.94 454.90
  A 0.30 0.30 0.0 0 1 446.45 454.59
  C 451.55 437.81 458.85 421.67 464.61 405.06
  C 467.19 397.62 477.16 393.16 480.68 385.82
  A 0.41 0.41 0.0 0 0 480.31 385.23
  L 454.08 385.26
  Q 453.73 385.26 453.42 385.11
  Q 452.67 384.75 452.01 384.87
  Q 451.35 384.98 451.48 385.63
  Q 452.37 390.21 452.85 394.86
  C 453.30 399.31 451.81 403.00 450.27 407.05
  Q 440.72 432.12 431.03 457.12
  Q 430.81 457.69 430.44 458.15
  A 0.53 0.53 0.0 0 1 429.53 458.00
  L 406.82 397.55
  Q 406.64 397.07 406.80 396.58
  Q 408.51 391.17 408.54 385.50
  Q 408.54 384.96 408.01 384.97
  L 379.44 385.37
  A 0.32 0.32 0.0 0 0 379.21 385.91
  Q 386.33 393.41 393.23 401.07
  Q 394.98 403.01 395.86 405.49
  Q 403.72 427.67 412.55 449.48
  Q 413.29 451.30 413.12 453.74
  Q 413.08 454.42 412.55 453.98
  Q 404.24 446.98 396.24 439.65
  C 379.59 424.39 362.55 409.58 345.68 394.57
  Q 341.03 390.44 337.56 385.24
  Q 337.33 384.90 336.93 384.91
  L 316.96 385.23
  Q 315.78 385.25 316.66 386.04
  C 348.10 414.06 379.41 442.25 410.71 470.42
  C 415.08 474.35 420.25 478.44 424.94 482.58
  C 427.61 484.94 431.28 486.21 434.05 483.81
  Q 456.35 464.52 533.89 395.41
  Q 539.21 390.66 543.43 386.10
  Q 544.38 385.06 542.97 385.08
  L 522.95 385.27
  Q 522.46 385.28 522.29 385.74
  Q 521.17 388.86 519.69 390.18
  Q 483.33 422.65 446.94 454.90
  Z"
/>
<path fill="#ffffff" d="
  M 273.12 115.98
  L 272.55 116.01
  Q 272.08 116.03 272.15 116.49
  Q 272.90 121.15 267.96 122.13
  Q 267.46 122.22 267.16 121.80
  Q 265.05 118.79 264.01 115.15
  Q 260.40 111.90 257.52 107.35
  A 0.42 0.42 0.0 0 1 258.16 106.82
  L 266.36 114.63
  A 0.55 0.55 0.0 0 0 267.29 114.26
  L 268.43 93.50
  Q 268.46 92.98 268.97 93.08
  C 269.36 93.16 270.17 111.91 270.28 113.95
  A 0.62 0.62 0.0 0 0 271.32 114.37
  L 279.74 106.48
  A 0.30 0.30 0.0 0 1 280.19 106.88
  L 273.12 115.98
  Z"
/>
<path fill="#ddbc63" d="
  M 264.01 115.15
  Q 265.05 118.79 267.16 121.80
  Q 267.46 122.22 267.96 122.13
  Q 272.90 121.15 272.15 116.49
  Q 272.08 116.03 272.55 116.01
  L 273.12 115.98
  C 282.68 117.05 292.85 116.55 301.27 116.55
  C 399.02 116.51 496.80 116.95 594.53 116.33
  Q 595.03 116.33 595.42 116.63
  Q 632.66 145.82 670.41 174.37
  Q 673.29 176.55 679.20 180.70
  C 683.09 183.42 686.75 185.94 690.14 189.31
  C 691.19 190.35 692.77 190.80 693.80 191.71
  Q 701.36 198.36 709.61 204.05
  C 713.24 206.55 716.55 209.40 720.12 212.02
  C 726.21 216.49 728.50 221.06 722.21 226.68
  Q 703.63 243.29 684.86 260.01
  A 1.79 1.77 -62.7 0 1 683.49 260.46
  Q 675.13 259.70 666.77 260.49
  A 0.56 0.56 0.0 0 1 666.35 259.52
  C 677.70 249.23 688.94 238.86 700.45 228.69
  Q 701.47 227.79 699.99 227.10
  Q 699.55 226.89 699.06 226.89
  L 635.22 227.03
  A 1.18 1.17 17.8 0 0 634.27 227.51
  C 626.75 237.66 620.71 249.09 614.04 259.83
  Q 613.78 260.25 613.29 260.26
  C 605.65 260.49 590.43 261.31 589.47 260.04
  Q 589.17 259.65 588.69 259.71
  L 585.68 260.12
  Q 583.34 260.43 584.96 258.71
  L 614.00 227.91
  A 0.46 0.46 0.0 0 0 613.67 227.14
  L 543.13 226.85
  Q 542.72 226.85 542.55 227.23
  L 528.32 259.69
  Q 528.15 260.08 527.73 260.08
  L 515.83 260.30
  Q 513.96 260.34 514.70 258.62
  L 527.61 228.76
  A 1.36 1.36 0.0 0 0 526.35 226.86
  Q 488.39 227.13 449.79 226.97
  C 447.37 226.96 442.76 226.31 439.61 227.11
  Q 438.04 227.51 438.31 229.10
  L 443.33 258.50
  Q 443.65 260.37 441.75 260.38
  L 417.44 260.48
  A 0.45 0.44 4.8 0 1 416.99 259.96
  L 422.33 227.53
  A 0.58 0.57 -86.1 0 0 421.76 226.87
  L 333.96 227.13
  Q 332.21 227.13 332.89 228.74
  Q 338.78 242.74 344.68 255.56
  Q 345.55 257.45 345.77 259.49
  Q 345.83 260.00 345.33 260.09
  Q 341.75 260.77 338.15 260.78
  C 336.81 260.78 334.85 259.80 333.09 260.53
  Q 332.51 260.78 332.25 260.20
  L 317.88 227.30
  Q 317.71 226.91 317.28 226.92
  Q 303.14 227.23 289.04 226.79
  C 285.04 226.67 280.33 227.11 275.91 226.86
  Q 271.82 226.64 268.96 226.84
  C 261.50 227.37 253.78 226.48 246.21 227.40
  Q 245.50 227.48 246.00 227.99
  Q 260.21 242.46 274.16 257.08
  Q 275.28 258.25 276.11 259.62
  Q 276.44 260.15 275.81 260.18
  C 269.41 260.49 262.41 259.78 256.73 259.94
  Q 251.91 260.08 247.08 260.24
  Q 246.55 260.26 246.28 259.81
  L 226.46 227.31
  Q 226.23 226.93 225.80 226.93
  L 160.03 226.88
  A 0.76 0.75 -24.0 0 0 159.52 228.19
  L 193.53 258.55
  Q 195.25 260.10 192.94 260.16
  L 175.78 260.68
  Q 175.30 260.69 174.95 260.35
  C 163.25 248.97 151.07 238.36 138.93 227.40
  C 135.04 223.90 132.76 219.64 136.94 215.43
  Q 140.98 211.38 150.05 204.95
  C 159.76 198.08 167.96 191.38 176.97 184.60
  C 200.35 166.99 223.28 148.77 246.69 131.19
  Q 252.89 126.53 259.10 121.10
  A 0.55 0.55 0.0 0 0 258.75 120.13
  L 244.56 119.64
  A 0.91 0.90 -5.3 0 1 243.70 118.93
  C 243.28 117.08 260.57 116.73 262.59 116.67
  Q 263.10 116.65 263.37 116.22
  L 264.01 115.15
  Z
  M 465.34 132.07
  Q 467.95 133.70 470.74 135.01
  Q 488.55 143.38 506.43 151.57
  Q 510.33 153.36 513.84 154.25
  Q 514.38 154.39 514.89 154.14
  L 562.41 130.53
  Q 564.15 129.67 562.21 129.71
  C 529.70 130.43 497.54 129.27 465.19 129.86
  Q 462.95 129.90 461.22 130.66
  Q 460.16 131.13 461.31 131.30
  L 464.44 131.74
  Q 464.92 131.81 465.34 132.07
  Z
  M 397.51 130.08
  L 299.54 129.75
  A 0.91 0.91 0.0 0 0 299.14 131.47
  L 345.85 154.26
  Q 346.36 154.51 346.91 154.39
  Q 349.05 153.92 350.49 153.24
  Q 374.17 142.08 397.77 131.27
  A 0.62 0.62 0.0 0 0 397.51 130.08
  Z
  M 474.62 151.47
  C 468.82 148.95 462.53 145.71 456.34 143.14
  C 447.44 139.43 439.21 134.11 430.18 130.90
  Q 429.66 130.72 429.16 130.95
  L 361.96 162.52
  A 1.03 1.02 -39.9 0 0 361.80 164.28
  Q 394.89 187.63 427.70 210.57
  Q 428.92 211.43 430.26 211.98
  Q 430.65 212.13 430.99 211.89
  L 498.64 164.55
  Q 500.17 163.48 498.66 162.37
  C 497.79 161.74 496.09 161.60 494.95 161.02
  Q 484.93 155.94 474.62 151.47
  Z
  M 609.79 202.66
  Q 616.34 205.95 622.75 209.48
  A 0.30 0.30 0.0 0 0 623.19 209.20
  Q 621.88 181.87 620.45 154.56
  C 620.40 153.68 619.40 151.99 618.52 151.34
  Q 605.64 141.77 593.06 131.74
  Q 592.65 131.42 592.15 131.57
  Q 588.32 132.68 584.72 134.45
  Q 557.33 147.93 530.58 161.14
  A 1.36 1.36 0.0 0 0 530.59 163.59
  Q 570.45 182.88 609.79 202.66
  Z
  M 268.53 143.09
  Q 267.71 138.14 267.24 133.16
  A 0.79 0.79 0.0 0 0 265.98 132.60
  Q 254.30 141.29 242.64 150.75
  C 239.58 153.23 239.61 156.54 239.44 160.75
  Q 238.43 184.84 237.24 208.92
  Q 237.21 209.46 237.69 209.21
  Q 264.84 195.49 292.24 182.28
  C 304.99 176.14 317.22 168.82 330.40 163.61
  A 0.86 0.86 0.0 0 0 330.53 162.07
  C 316.24 153.46 300.53 146.47 285.44 139.40
  C 280.81 137.23 275.26 132.96 270.35 132.49
  Q 269.83 132.44 269.80 132.97
  L 269.34 143.04
  Q 269.16 146.93 268.53 143.09
  Z
  M 225.75 179.04
  C 225.53 174.06 226.29 169.12 225.89 164.08
  Q 225.85 163.54 225.42 163.87
  L 162.57 212.12
  Q 160.56 213.66 162.99 214.36
  C 164.34 214.74 167.58 213.74 169.33 213.74
  Q 193.25 213.85 217.15 213.46
  C 218.77 213.43 221.27 214.16 223.45 213.49
  Q 223.96 213.33 223.96 212.79
  Q 224.02 197.99 225.62 183.34
  Q 225.85 181.28 225.75 179.04
  Z
  M 639.55 213.50
  Q 668.49 213.54 697.48 213.93
  A 0.63 0.63 0.0 0 0 698.08 213.06
  Q 697.27 211.09 695.31 209.64
  Q 664.73 187.12 634.92 163.51
  A 0.30 0.29 19.0 0 0 634.44 163.74
  C 634.56 180.43 635.96 196.96 636.28 213.63
  Q 636.29 214.30 636.94 214.12
  C 637.92 213.84 638.60 213.50 639.55 213.50
  Z
  M 463.75 213.70
  C 481.11 213.46 498.09 213.73 515.78 213.49
  Q 521.37 213.42 526.89 213.81
  A 0.91 0.90 -8.9 0 0 527.80 212.57
  Q 520.30 194.23 512.29 176.20
  Q 511.35 174.06 510.57 172.70
  Q 510.29 172.19 509.82 172.53
  Q 482.23 192.34 454.21 211.53
  C 453.77 211.83 453.34 212.88 453.53 213.24
  A 2.02 1.98 -17.4 0 0 455.53 214.26
  Q 459.74 213.75 463.75 213.70
  Z
  M 362.47 213.72
  C 363.73 213.15 366.01 213.72 367.00 213.71
  Q 387.77 213.36 408.59 213.80
  A 0.27 0.27 0.0 0 0 408.75 213.31
  L 350.17 172.64
  Q 349.77 172.36 349.58 172.80
  Q 342.52 188.59 333.63 210.16
  Q 332.87 212.01 332.56 213.49
  Q 332.44 214.03 333.00 214.00
  Q 347.26 213.05 361.54 213.90
  Q 362.02 213.93 362.47 213.72
  Z
  M 529.91 177.83
  C 528.76 177.26 527.37 176.04 527.03 174.75
  Q 526.86 174.11 526.78 174.77
  Q 526.63 175.99 527.03 176.96
  Q 532.58 190.20 542.72 213.18
  Q 542.92 213.63 543.41 213.64
  L 598.50 213.82
  A 0.87 0.87 0.0 0 0 598.90 212.17
  Q 563.94 194.65 529.91 177.83
  Z
  M 301.98 213.37
  C 306.77 213.22 311.33 213.94 316.01 214.34
  Q 317.20 214.45 317.68 213.36
  C 323.01 201.38 327.67 189.41 333.52 177.99
  A 0.79 0.79 0.0 0 0 332.47 176.93
  L 260.66 212.41
  A 0.73 0.73 0.0 0 0 261.08 213.78
  C 265.67 213.13 271.94 213.74 275.21 213.75
  Q 288.60 213.80 301.98 213.37
  Z"
/>
<path fill="#231f20" d="
  M 464.44 131.74
  L 461.31 131.30
  Q 460.16 131.13 461.22 130.66
  Q 462.95 129.90 465.19 129.86
  C 497.54 129.27 529.70 130.43 562.21 129.71
  Q 564.15 129.67 562.41 130.53
  L 514.89 154.14
  Q 514.38 154.39 513.84 154.25
  Q 510.33 153.36 506.43 151.57
  Q 488.55 143.38 470.74 135.01
  Q 467.95 133.70 465.34 132.07
  Q 464.92 131.81 464.44 131.74
  Z"
/>
<path fill="#231f20" d="
  M 299.54 129.75
  L 397.51 130.08
  A 0.62 0.62 0.0 0 1 397.77 131.27
  Q 374.17 142.08 350.49 153.24
  Q 349.05 153.92 346.91 154.39
  Q 346.36 154.51 345.85 154.26
  L 299.14 131.47
  A 0.91 0.91 0.0 0 1 299.54 129.75
  Z"
/>
<path fill="#231f20" d="
  M 474.62 151.47
  Q 484.93 155.94 494.95 161.02
  C 496.09 161.60 497.79 161.74 498.66 162.37
  Q 500.17 163.48 498.64 164.55
  L 430.99 211.89
  Q 430.65 212.13 430.26 211.98
  Q 428.92 211.43 427.70 210.57
  Q 394.89 187.63 361.80 164.28
  A 1.03 1.02 -39.9 0 1 361.96 162.52
  L 429.16 130.95
  Q 429.66 130.72 430.18 130.90
  C 439.21 134.11 447.44 139.43 456.34 143.14
  C 462.53 145.71 468.82 148.95 474.62 151.47
  Z"
/>
<path fill="#231f20" d="
  M 609.79 202.66
  Q 570.45 182.88 530.59 163.59
  A 1.36 1.36 0.0 0 1 530.58 161.14
  Q 557.33 147.93 584.72 134.45
  Q 588.32 132.68 592.15 131.57
  Q 592.65 131.42 593.06 131.74
  Q 605.64 141.77 618.52 151.34
  C 619.40 151.99 620.40 153.68 620.45 154.56
  Q 621.88 181.87 623.19 209.20
  A 0.30 0.30 0.0 0 1 622.75 209.48
  Q 616.34 205.95 609.79 202.66
  Z"
/>
<path fill="#231f20" d="
  M 269.34 143.04
  L 269.80 132.97
  Q 269.83 132.44 270.35 132.49
  C 275.26 132.96 280.81 137.23 285.44 139.40
  C 300.53 146.47 316.24 153.46 330.53 162.07
  A 0.86 0.86 0.0 0 1 330.40 163.61
  C 317.22 168.82 304.99 176.14 292.24 182.28
  Q 264.84 195.49 237.69 209.21
  Q 237.21 209.46 237.24 208.92
  Q 238.43 184.84 239.44 160.75
  C 239.61 156.54 239.58 153.23 242.64 150.75
  Q 254.30 141.29 265.98 132.60
  A 0.79 0.79 0.0 0 1 267.24 133.16
  Q 267.71 138.14 268.53 143.09
  Q 269.16 146.93 269.34 143.04
  Z"
/>
<path fill="#231f20" d="
  M 225.89 164.08
  C 226.29 169.12 225.53 174.06 225.75 179.04
  Q 225.85 181.28 225.62 183.34
  Q 224.02 197.99 223.96 212.79
  Q 223.96 213.33 223.45 213.49
  C 221.27 214.16 218.77 213.43 217.15 213.46
  Q 193.25 213.85 169.33 213.74
  C 167.58 213.74 164.34 214.74 162.99 214.36
  Q 160.56 213.66 162.57 212.12
  L 225.42 163.87
  Q 225.85 163.54 225.89 164.08
  Z"
/>
<path fill="#231f20" d="
  M 639.55 213.50
  C 638.60 213.50 637.92 213.84 636.94 214.12
  Q 636.29 214.30 636.28 213.63
  C 635.96 196.96 634.56 180.43 634.44 163.74
  A 0.30 0.29 19.0 0 1 634.92 163.51
  Q 664.73 187.12 695.31 209.64
  Q 697.27 211.09 698.08 213.06
  A 0.63 0.63 0.0 0 1 697.48 213.93
  Q 668.49 213.54 639.55 213.50
  Z"
/>
<path fill="#231f20" d="
  M 515.78 213.49
  C 498.09 213.73 481.11 213.46 463.75 213.70
  Q 459.74 213.75 455.53 214.26
  A 2.02 1.98 -17.4 0 1 453.53 213.24
  C 453.34 212.88 453.77 211.83 454.21 211.53
  Q 482.23 192.34 509.82 172.53
  Q 510.29 172.19 510.57 172.70
  Q 511.35 174.06 512.29 176.20
  Q 520.30 194.23 527.80 212.57
  A 0.91 0.90 -8.9 0 1 526.89 213.81
  Q 521.37 213.42 515.78 213.49
  Z"
/>
<path fill="#231f20" d="
  M 367.00 213.71
  C 366.01 213.72 363.73 213.15 362.47 213.72
  Q 362.02 213.93 361.54 213.90
  Q 347.26 213.05 333.00 214.00
  Q 332.44 214.03 332.56 213.49
  Q 332.87 212.01 333.63 210.16
  Q 342.52 188.59 349.58 172.80
  Q 349.77 172.36 350.17 172.64
  L 408.75 213.31
  A 0.27 0.27 0.0 0 1 408.59 213.80
  Q 387.77 213.36 367.00 213.71
  Z"
/>
<path fill="#231f20" d="
  M 527.03 174.75
  C 527.37 176.04 528.76 177.26 529.91 177.83
  Q 563.94 194.65 598.90 212.17
  A 0.87 0.87 0.0 0 1 598.50 213.82
  L 543.41 213.64
  Q 542.92 213.63 542.72 213.18
  Q 532.58 190.20 527.03 176.96
  Q 526.63 175.99 526.78 174.77
  Q 526.86 174.11 527.03 174.75
  Z"
/>
<path fill="#231f20" d="
  M 301.98 213.37
  Q 288.60 213.80 275.21 213.75
  C 271.94 213.74 265.67 213.13 261.08 213.78
  A 0.73 0.73 0.0 0 1 260.66 212.41
  L 332.47 176.93
  A 0.79 0.79 0.0 0 1 333.52 177.99
  C 327.67 189.41 323.01 201.38 317.68 213.36
  Q 317.20 214.45 316.01 214.34
  C 311.33 213.94 306.77 213.22 301.98 213.37
  Z"
/>
<path fill="#ddbc63" d="
  M 785.72 286.76
  Q 784.42 286.08 783.04 287.50
  L 784.55 277.38
  Q 784.58 277.13 784.79 277.26
  L 785.12 277.45
  Q 785.29 277.55 785.29 277.74
  L 785.72 286.76
  Z"
/>
<path fill="#ffffff" d="
  M 785.72 286.76
  C 789.40 287.48 786.99 290.65 788.70 292.79
  C 800.45 307.56 790.05 320.59 774.44 323.44
  A 0.78 0.77 -34.0 0 0 774.16 324.86
  C 784.25 331.18 787.90 343.58 797.03 350.61
  C 798.60 351.81 801.52 352.84 802.45 354.57
  A 0.47 0.47 0.0 0 1 802.01 355.27
  C 792.88 354.86 785.15 356.05 780.01 346.71
  C 776.39 340.13 772.38 330.14 766.28 325.72
  C 763.38 323.61 760.60 323.75 757.21 323.75
  Q 756.61 323.75 756.59 324.35
  Q 756.27 335.21 756.66 345.95
  C 756.80 349.85 757.65 351.83 761.27 353.17
  Q 762.19 353.51 762.22 354.51
  Q 762.24 354.96 761.78 354.96
  L 741.50 355.09
  A 1.93 1.80 -14.4 0 1 739.85 354.19
  C 739.73 353.99 740.55 353.27 740.93 353.18
  C 746.03 352.05 746.22 346.95 746.23 342.75
  Q 746.27 321.25 746.05 299.75
  C 746.01 295.69 746.40 290.49 741.10 289.48
  Q 738.77 289.03 741.28 287.68
  A 1.47 1.45 -57.1 0 1 742.09 287.50
  C 755.08 288.31 766.96 286.92 779.84 289.38
  C 781.21 289.65 781.77 290.50 782.04 291.75
  C 782.10 293.39 783.36 293.50 783.95 294.44
  C 785.42 296.71 784.11 298.35 784.27 300.90
  A 0.55 0.55 0.0 0 0 785.33 301.08
  Q 786.73 297.70 786.33 294.11
  Q 786.28 293.64 785.91 293.35
  Q 783.31 291.29 782.96 288.00
  L 783.04 287.50
  Q 784.42 286.08 785.72 286.76
  Z
  M 756.59 291.61
  L 756.45 319.51
  A 1.25 1.25 0.0 0 0 757.69 320.77
  L 768.66 320.83
  A 14.35 13.96 -89.7 0 0 782.70 306.55
  L 782.70 304.85
  A 14.35 13.96 -89.7 0 0 768.82 290.43
  L 757.85 290.37
  A 1.25 1.25 0.0 0 0 756.59 291.61
  Z"
/>
<path fill="#ffffff" d="
  M 147.1243 355.8139
  A 34.68 33.66 96.4 0 1 117.5398 317.5980
  A 34.68 33.66 96.4 0 1 154.8557 286.8861
  A 34.68 33.66 96.4 0 1 184.4402 325.1020
  A 34.68 33.66 96.4 0 1 147.1243 355.8139
  Z
  M 173.00 326.50
  C 173.75 315.71 172.37 302.09 164.47 294.80
  C 155.08 286.15 138.11 289.03 132.73 301.03
  C 124.97 318.36 126.95 357.76 155.80 352.16
  C 168.40 349.72 172.23 337.62 173.00 326.50
  Z"
/>
<path fill="#ffffff" d="
  M 230.71 290.26
  C 217.89 287.63 206.82 296.47 203.74 308.79
  C 198.40 330.16 210.03 360.33 237.99 351.09
  C 245.07 348.75 246.64 344.04 250.59 339.01
  Q 251.28 338.12 251.24 339.24
  Q 251.01 345.80 248.57 351.90
  Q 248.39 352.37 247.91 352.54
  C 234.96 357.05 217.98 357.62 206.35 350.57
  C 179.67 334.41 190.51 289.30 221.98 286.98
  C 229.21 286.45 236.71 287.91 243.69 289.72
  C 245.58 290.21 247.20 289.86 249.02 289.58
  A 0.69 0.69 0.0 0 1 249.82 290.28
  L 249.45 306.89
  A 0.58 0.55 -17.2 0 1 249.19 307.36
  C 248.12 308.04 245.38 301.71 244.88 300.78
  C 241.70 294.78 237.22 291.59 230.71 290.26
  Z"
/>
<path fill="#ffffff" d="
  M 482.61 290.10
  L 486.41 289.67
  Q 487.02 289.60 487.00 290.21
  C 486.87 295.69 487.36 302.33 486.34 307.62
  Q 486.14 308.65 485.65 307.72
  C 481.86 300.45 479.60 294.45 472.73 291.76
  C 460.49 286.96 448.11 291.89 442.78 303.52
  C 436.95 316.25 439.18 335.41 449.05 345.69
  Q 455.80 352.72 466.99 352.68
  C 477.17 352.64 482.19 347.55 487.27 339.56
  A 0.80 0.80 0.0 0 1 488.73 340.17
  L 486.16 351.60
  Q 486.05 352.12 485.56 352.30
  C 463.56 360.65 434.42 356.06 429.02 328.76
  C 426.19 314.42 432.82 298.91 445.09 291.33
  C 455.57 284.85 469.41 286.47 481.59 290.01
  Q 482.09 290.15 482.61 290.10
  Z"
/>
<path fill="#ffffff" d="
  M 522.3762 355.7833
  A 34.66 33.70 96.7 0 1 492.9501 317.4282
  A 34.66 33.70 96.7 0 1 530.4638 286.9367
  A 34.66 33.70 96.7 0 1 559.8899 325.2918
  A 34.66 33.70 96.7 0 1 522.3762 355.7833
  Z
  M 516.52 292.23
  C 497.67 302.51 499.23 351.58 525.36 352.94
  C 539.44 353.68 546.80 342.34 548.18 329.85
  C 549.26 320.08 548.82 306.15 542.91 298.05
  C 536.83 289.70 525.38 287.39 516.52 292.23
  Z"
/>
<path fill="#ffffff" d="
  M 698.3147 355.7366
  A 34.67 33.68 97.2 0 1 669.2456 317.1188
  A 34.67 33.68 97.2 0 1 707.0053 286.9434
  A 34.67 33.68 97.2 0 1 736.0744 325.5612
  A 34.67 33.68 97.2 0 1 698.3147 355.7366
  Z
  M 724.75 327.75
  C 726.15 313.30 723.11 292.20 705.27 289.99
  C 675.64 286.33 674.70 335.59 690.25 348.68
  C 698.78 355.86 711.51 353.54 718.39 345.58
  C 722.69 340.60 724.11 334.34 724.75 327.75
  Z"
/>
<path fill="#ffffff" d="
  M 366.61 329.54
  C 359.89 330.84 351.21 330.13 344.32 329.82
  Q 343.84 329.80 343.66 330.24
  C 341.54 335.29 336.22 348.31 338.00 351.00
  C 338.99 352.51 341.46 352.96 343.13 353.40
  Q 343.79 353.57 343.44 354.15
  L 343.24 354.50
  Q 342.99 354.90 342.52 354.94
  Q 333.83 355.67 325.13 354.92
  A 0.47 0.47 0.0 0 1 324.92 354.06
  Q 327.04 352.70 329.48 352.12
  Q 329.97 352.01 330.31 351.65
  Q 333.33 348.48 334.95 343.94
  Q 346.36 312.00 355.20 289.19
  C 356.43 286.02 359.99 287.06 361.18 289.82
  Q 373.31 317.80 385.37 345.81
  Q 387.94 351.78 394.25 353.55
  A 0.72 0.72 0.0 0 1 394.75 354.41
  C 394.54 355.29 372.99 355.30 370.58 355.34
  Q 370.06 355.35 369.83 354.88
  Q 369.64 354.50 369.81 354.08
  Q 370.01 353.60 370.48 353.38
  L 373.96 351.76
  Q 374.47 351.52 374.60 350.97
  C 375.48 346.98 369.01 334.09 367.20 329.85
  Q 367.03 329.46 366.61 329.54
  Z
  M 344.96 326.39
  A 0.30 0.30 0.0 0 0 345.25 326.80
  L 365.25 326.31
  A 0.30 0.30 0.0 0 0 365.51 325.89
  L 354.89 300.53
  A 0.30 0.30 0.0 0 0 354.33 300.54
  L 344.96 326.39
  Z"
/>
<path fill="#ffffff" d="
  M 91.06 325.01
  C 102.42 332.48 105.99 347.75 118.46 353.39
  A 0.95 0.95 0.0 0 1 118.47 355.12
  C 117.64 355.51 116.01 355.13 115.20 355.17
  C 109.97 355.47 103.92 354.89 100.04 350.91
  C 90.47 341.10 89.93 322.83 74.01 323.77
  A 0.76 0.75 -0.0 0 0 73.30 324.47
  Q 72.59 335.76 73.39 346.94
  Q 73.73 351.67 78.05 353.28
  Q 78.54 353.47 78.64 353.98
  L 78.76 354.61
  Q 78.91 355.37 78.13 355.33
  Q 70.61 354.91 63.11 355.00
  C 61.30 355.02 59.06 355.68 56.87 354.79
  Q 56.15 354.49 56.71 353.96
  C 57.80 352.93 59.38 352.73 60.33 351.85
  Q 62.67 349.66 62.70 346.44
  Q 62.88 329.57 62.68 296.75
  Q 62.64 290.31 56.91 289.46
  Q 56.39 289.38 56.49 288.86
  L 56.59 288.36
  Q 56.70 287.81 57.26 287.79
  Q 74.09 287.39 90.89 288.14
  C 97.98 288.46 105.00 290.81 108.17 297.34
  C 114.88 311.19 104.38 321.17 91.41 323.33
  A 0.92 0.92 0.0 0 0 91.06 325.01
  Z
  M 73.01 292.20
  L 72.91 319.04
  A 1.78 1.78 0.0 0 0 74.69 320.83
  L 85.00 320.87
  A 14.27 14.23 -89.8 0 0 99.28 306.65
  L 99.28 304.79
  A 14.27 14.23 -89.8 0 0 85.10 290.47
  L 74.79 290.43
  A 1.78 1.78 0.0 0 0 73.01 292.20
  Z"
/>
<path fill="#ffffff" d="
  M 270.77 319.57
  Q 270.51 328.66 270.86 346.00
  Q 270.93 349.49 272.48 351.76
  Q 272.77 352.18 273.28 352.21
  Q 275.11 352.30 276.38 353.56
  A 0.80 0.80 0.0 0 1 275.82 354.93
  L 255.50 355.17
  A 1.24 0.96 80.9 0 1 254.49 354.22
  C 254.45 354.06 255.38 353.24 255.72 353.11
  Q 260.18 351.39 260.20 346.69
  Q 260.32 321.59 260.28 296.50
  Q 260.27 291.06 255.34 289.53
  Q 254.87 289.38 254.70 288.93
  L 254.49 288.36
  A 0.72 0.71 82.0 0 1 255.21 287.40
  Q 265.42 288.11 275.65 287.51
  Q 276.31 287.47 276.37 288.12
  L 276.44 288.85
  Q 276.50 289.43 275.92 289.54
  C 273.00 290.11 271.36 291.50 271.03 294.65
  Q 269.94 305.00 270.89 315.32
  Q 270.94 315.81 271.43 315.81
  L 304.78 315.64
  A 0.93 0.93 0.0 0 0 305.71 314.73
  Q 305.83 307.95 305.72 301.20
  C 305.61 294.90 306.27 291.00 300.02 289.08
  A 0.68 0.67 -36.6 0 1 300.22 287.76
  L 321.42 287.60
  Q 322.07 287.59 321.99 288.24
  C 321.68 290.62 316.44 289.93 316.40 295.81
  C 316.30 312.91 315.43 330.53 316.36 347.57
  C 316.61 352.09 319.79 351.82 322.36 354.31
  A 0.42 0.42 0.0 0 1 322.07 355.04
  Q 313.29 355.12 304.57 354.96
  C 303.67 354.95 301.39 355.26 300.32 354.79
  A 0.79 0.79 0.0 0 1 300.42 353.31
  Q 305.57 351.81 305.65 346.44
  Q 305.81 334.30 305.71 320.54
  Q 305.70 318.97 304.12 318.97
  L 271.38 318.97
  Q 270.78 318.97 270.77 319.57
  Z"
/>
<path fill="#ffffff" d="
  M 581.31 351.89
  Q 588.89 352.23 597.07 352.00
  C 604.13 351.81 607.50 347.30 610.52 341.67
  A 0.75 0.74 58.9 0 1 611.92 342.02
  L 612.03 354.55
  Q 612.04 355.19 611.39 355.19
  L 564.86 355.03
  Q 564.39 355.03 564.21 354.60
  Q 563.67 353.37 564.99 352.93
  Q 569.78 351.34 569.83 346.43
  Q 570.09 321.37 569.92 296.30
  Q 569.89 291.24 564.75 289.62
  Q 563.76 289.31 563.80 288.21
  Q 563.82 287.82 564.20 287.82
  L 585.34 287.58
  Q 585.87 287.58 586.05 288.07
  L 586.25 288.61
  Q 586.46 289.18 585.87 289.32
  Q 580.32 290.63 580.30 296.81
  Q 580.20 323.67 580.26 350.80
  Q 580.27 351.84 581.31 351.89
  Z"
/>
<path fill="#ffffff" d="
  M 634.60 351.98
  Q 641.50 352.04 649.25 352.03
  C 657.67 352.02 659.60 347.27 663.61 341.00
  Q 664.49 339.63 664.53 341.26
  L 664.83 354.55
  Q 664.85 355.27 664.13 355.27
  L 616.91 355.07
  A 0.62 0.61 19.6 0 1 616.43 354.07
  Q 617.60 352.62 619.62 352.37
  Q 620.19 352.29 620.53 351.84
  Q 622.63 349.06 622.67 344.31
  C 622.79 328.29 623.29 311.97 622.40 295.97
  C 622.02 289.12 617.05 291.14 616.25 288.36
  Q 616.08 287.77 616.69 287.77
  L 637.73 287.71
  A 0.86 0.86 0.0 0 1 638.03 289.38
  C 632.68 291.33 633.08 294.86 633.05 300.41
  Q 632.92 325.03 633.06 350.43
  Q 633.07 351.96 634.60 351.98
  Z"
/>
<path fill="#ddbc63" d="
  M 782.96 288.00
  Q 783.31 291.29 785.91 293.35
  Q 786.28 293.64 786.33 294.11
  Q 786.73 297.70 785.33 301.08
  A 0.55 0.55 0.0 0 1 784.27 300.90
  C 784.11 298.35 785.42 296.71 783.95 294.44
  C 783.36 293.50 782.10 293.39 782.04 291.75
  C 783.21 291.58 782.63 289.10 782.96 288.00
  Z"
/>
<ellipse fill="#ddbc63" cx="0.00" cy="0.00" transform="translate(793.55,289.99) rotate(-3.3)" rx="3.06" ry="1.03"/>
<path fill="#231f20" d="
  M 173.00 326.50
  C 172.23 337.62 168.40 349.72 155.80 352.16
  C 126.95 357.76 124.97 318.36 132.73 301.03
  C 138.11 289.03 155.08 286.15 164.47 294.80
  C 172.37 302.09 173.75 315.71 173.00 326.50
  Z"
/>
<path fill="#231f20" d="
  M 525.36 352.94
  C 499.23 351.58 497.67 302.51 516.52 292.23
  C 525.38 287.39 536.83 289.70 542.91 298.05
  C 548.82 306.15 549.26 320.08 548.18 329.85
  C 546.80 342.34 539.44 353.68 525.36 352.94
  Z"
/>
<path fill="#231f20" d="
  M 724.75 327.75
  C 724.11 334.34 722.69 340.60 718.39 345.58
  C 711.51 353.54 698.78 355.86 690.25 348.68
  C 674.70 335.59 675.64 286.33 705.27 289.99
  C 723.11 292.20 726.15 313.30 724.75 327.75
  Z"
/>
<path fill="#231f20" d="
  M 73.01 292.20
  A 1.78 1.78 0.0 0 1 74.79 290.43
  L 85.10 290.47
  A 14.27 14.23 -89.8 0 1 99.28 304.79
  L 99.28 306.65
  A 14.27 14.23 -89.8 0 1 85.00 320.87
  L 74.69 320.83
  A 1.78 1.78 0.0 0 1 72.91 319.04
  L 73.01 292.20
  Z"
/>
<path fill="#231f20" d="
  M 756.59 291.61
  A 1.25 1.25 0.0 0 1 757.85 290.37
  L 768.82 290.43
  A 14.35 13.96 -89.7 0 1 782.70 304.85
  L 782.70 306.55
  A 14.35 13.96 -89.7 0 1 768.66 320.83
  L 757.69 320.77
  A 1.25 1.25 0.0 0 1 756.45 319.51
  L 756.59 291.61
  Z"
/>
<path fill="#231f20" d="
  M 344.96 326.39
  L 354.33 300.54
  A 0.30 0.30 0.0 0 1 354.89 300.53
  L 365.51 325.89
  A 0.30 0.30 0.0 0 1 365.25 326.31
  L 345.25 326.80
  A 0.30 0.30 0.0 0 1 344.96 326.39
  Z"
/>
<path fill="#ddbc63" d="
  M 446.94 454.90
  Q 483.33 422.65 519.69 390.18
  Q 521.17 388.86 522.29 385.74
  Q 522.46 385.28 522.95 385.27
  L 542.97 385.08
  Q 544.38 385.06 543.43 386.10
  Q 539.21 390.66 533.89 395.41
  Q 456.35 464.52 434.05 483.81
  C 431.28 486.21 427.61 484.94 424.94 482.58
  C 420.25 478.44 415.08 474.35 410.71 470.42
  C 379.41 442.25 348.10 414.06 316.66 386.04
  Q 315.78 385.25 316.96 385.23
  L 336.93 384.91
  Q 337.33 384.90 337.56 385.24
  Q 341.03 390.44 345.68 394.57
  C 362.55 409.58 379.59 424.39 396.24 439.65
  Q 404.24 446.98 412.55 453.98
  Q 413.08 454.42 413.12 453.74
  Q 413.29 451.30 412.55 449.48
  Q 403.72 427.67 395.86 405.49
  Q 394.98 403.01 393.23 401.07
  Q 386.33 393.41 379.21 385.91
  A 0.32 0.32 0.0 0 1 379.44 385.37
  L 408.01 384.97
  Q 408.54 384.96 408.54 385.50
  Q 408.51 391.17 406.80 396.58
  Q 406.64 397.07 406.82 397.55
  L 429.53 458.00
  A 0.53 0.53 0.0 0 0 430.44 458.15
  Q 430.81 457.69 431.03 457.12
  Q 440.72 432.12 450.27 407.05
  C 451.81 403.00 453.30 399.31 452.85 394.86
  Q 452.37 390.21 451.48 385.63
  Q 451.35 384.98 452.01 384.87
  Q 452.67 384.75 453.42 385.11
  Q 453.73 385.26 454.08 385.26
  L 480.31 385.23
  A 0.41 0.41 0.0 0 1 480.68 385.82
  C 477.16 393.16 467.19 397.62 464.61 405.06
  C 458.85 421.67 451.55 437.81 446.45 454.59
  A 0.30 0.30 0.0 0 0 446.94 454.90
  Z"
/>
</svg>
